<svg width="137" height="20" viewBox="0 0 137 20" fill="none" xmlns="http://www.w3.org/2000/svg">
<path d="M106.951 7.02275L101.087 6.17054L98.4661 0.856296C98.3945 0.710795 98.2767 0.593009 98.1312 0.521414C97.7663 0.34127 97.3229 0.49139 97.1404 0.856296L94.5191 6.17054L88.6552 7.02275C88.4935 7.04585 88.3457 7.12206 88.2326 7.23754C88.0957 7.37816 88.0204 7.56734 88.023 7.76352C88.0256 7.95969 88.1059 8.14681 88.2464 8.28376L92.489 12.4201L91.4867 18.2609C91.4632 18.3968 91.4782 18.5366 91.5301 18.6643C91.582 18.7921 91.6686 18.9027 91.7802 18.9838C91.8917 19.0648 92.0238 19.113 92.1613 19.1228C92.2988 19.1326 92.4364 19.1036 92.5583 19.0393L97.8033 16.2817L103.048 19.0393C103.191 19.1155 103.358 19.1409 103.517 19.1132C103.919 19.0439 104.189 18.6628 104.12 18.2609L103.118 12.4201L107.36 8.28376C107.476 8.17059 107.552 8.02278 107.575 7.86111C107.637 7.45695 107.356 7.0828 106.951 7.02275Z" fill="#F6303F"/>
<path d="M77.6103 7.02275L71.7464 6.17054L69.1251 0.856296C69.0535 0.710795 68.9357 0.593009 68.7902 0.521414C68.4253 0.34127 67.9819 0.49139 67.7994 0.856296L65.1781 6.17054L59.3142 7.02275C59.1525 7.04585 59.0047 7.12206 58.8916 7.23754C58.7547 7.37816 58.6794 7.56734 58.6819 7.76352C58.6845 7.95969 58.7649 8.14681 58.9054 8.28376L63.148 12.4201L62.1457 18.2609C62.1222 18.3968 62.1372 18.5366 62.1891 18.6643C62.241 18.7921 62.3276 18.9027 62.4392 18.9838C62.5507 19.0648 62.6828 19.113 62.8203 19.1228C62.9578 19.1326 63.0954 19.1036 63.2173 19.0393L68.4623 16.2817L73.7072 19.0393C73.8504 19.1155 74.0167 19.1409 74.1761 19.1132C74.5779 19.0439 74.8481 18.6628 74.7788 18.2609L73.7765 12.4201L78.0191 8.28376C78.1346 8.17059 78.2108 8.02278 78.2339 7.86111C78.2963 7.45695 78.0145 7.0828 77.6103 7.02275Z" fill="#F6303F"/>
<path d="M48.2691 7.02275L42.4052 6.17054L39.7839 0.856296C39.7123 0.710795 39.5945 0.593009 39.449 0.521414C39.0841 0.34127 38.6407 0.49139 38.4582 0.856296L35.8369 6.17054L29.973 7.02275C29.8113 7.04585 29.6635 7.12206 29.5503 7.23754C29.4135 7.37816 29.3381 7.56734 29.3407 7.76352C29.3433 7.95969 29.4237 8.14681 29.5642 8.28376L33.8068 12.4201L32.8045 18.2609C32.781 18.3968 32.796 18.5366 32.8479 18.6643C32.8997 18.7921 32.9864 18.9027 33.0979 18.9838C33.2095 19.0648 33.3415 19.113 33.4791 19.1228C33.6166 19.1326 33.7542 19.1036 33.8761 19.0393L39.121 16.2817L44.366 19.0393C44.5092 19.1155 44.6755 19.1409 44.8348 19.1132C45.2367 19.0439 45.5069 18.6628 45.4376 18.2609L44.4353 12.4201L48.6779 8.28376C48.7934 8.17059 48.8696 8.02278 48.8927 7.86111C48.955 7.45695 48.6733 7.0828 48.2691 7.02275Z" fill="#F6303F"/>
<path d="M136.292 7.02275L130.428 6.17054L127.807 0.856296C127.735 0.710795 127.618 0.593009 127.472 0.521414C127.107 0.34127 126.664 0.49139 126.481 0.856296L123.86 6.17054L117.996 7.02275C117.835 7.04585 117.687 7.12206 117.574 7.23754C117.437 7.37816 117.361 7.56734 117.364 7.76352C117.367 7.95969 117.447 8.14681 117.587 8.28376L121.83 12.4201L120.828 18.2609C120.804 18.3968 120.819 18.5366 120.871 18.6643C120.923 18.7921 121.01 18.9027 121.121 18.9838C121.233 19.0648 121.365 19.113 121.502 19.1228C121.64 19.1326 121.777 19.1036 121.899 19.0393L127.144 16.2817L132.389 19.0393C132.532 19.1155 132.699 19.1409 132.858 19.1132C133.26 19.0439 133.53 18.6628 133.461 18.2609L132.458 12.4201L136.701 8.28376C136.817 8.17059 136.893 8.02278 136.916 7.86111C136.978 7.45695 136.696 7.0828 136.292 7.02275Z" fill="#F6303F"/>
<path d="M18.9284 7.02269L13.0645 6.17047L10.4432 0.856235C10.3716 0.710734 10.2538 0.592948 10.1083 0.521353C9.74338 0.341209 9.29995 0.491329 9.1175 0.856235L6.49618 6.17047L0.632269 7.02269C0.470601 7.04579 0.322791 7.122 0.209624 7.23748C0.072811 7.3781 -0.00257912 7.56728 1.92276e-05 7.76346C0.00261758 7.95963 0.0829918 8.14675 0.223481 8.2837L4.46609 12.4201L3.46376 18.2609C3.44025 18.3968 3.45529 18.5365 3.50716 18.6643C3.55903 18.792 3.64566 18.9027 3.75723 18.9837C3.86879 19.0647 4.00083 19.1129 4.13837 19.1227C4.27591 19.1325 4.41345 19.1036 4.53538 19.0392L9.78033 16.2816L15.0253 19.0392C15.1685 19.1154 15.3348 19.1408 15.4941 19.1131C15.896 19.0438 16.1662 18.6627 16.0969 18.2609L15.0946 12.4201L19.3372 8.2837C19.4527 8.17053 19.5289 8.02272 19.552 7.86105C19.6143 7.45688 19.3326 7.08274 18.9284 7.02269Z" fill="#F6303F"/>
</svg>
