<svg width="21" height="20" viewBox="0 0 21 20" fill="none" xmlns="http://www.w3.org/2000/svg">
<path d="M13.6425 6.46364L13.7174 6.61553L13.885 6.63989L20.063 7.53775C20.0632 7.53778 20.0634 7.5378 20.0636 7.53783C20.3163 7.57568 20.487 7.80802 20.4491 8.05349L20.4486 8.05705C20.4345 8.15586 20.3879 8.24706 20.316 8.31768C20.3159 8.31776 20.3158 8.31785 20.3157 8.31793L15.8457 12.676L15.7245 12.7942L15.7531 12.9611L16.8093 19.1157L16.8094 19.116C16.852 19.3634 16.6858 19.599 16.4368 19.6419L16.4364 19.642C16.3375 19.6592 16.2351 19.643 16.1488 19.5971L16.1474 19.5963L10.6206 16.6906L10.4707 16.6118L10.3209 16.6906L4.79406 19.5963L4.79356 19.5966C4.7183 19.6363 4.6334 19.6542 4.5485 19.6481C4.4636 19.6421 4.38209 19.6124 4.31322 19.5624C4.24436 19.5123 4.19088 19.444 4.15886 19.3652C4.12684 19.2863 4.11756 19.2 4.13207 19.1162L4.13215 19.1157L5.18834 12.9611L5.21698 12.7942L5.09575 12.676L0.625157 8.31735L0.625137 8.31733C0.538224 8.23261 0.488501 8.11685 0.486894 7.99549C0.485289 7.87433 0.531769 7.75749 0.616137 7.67054C0.686739 7.59867 0.777891 7.55212 0.876633 7.53801L0.877406 7.5379L7.05641 6.63989L7.22401 6.61553L7.29892 6.46364L10.0603 0.865403C10.0605 0.86516 10.0606 0.864917 10.0607 0.864674C10.1744 0.638233 10.4494 0.546514 10.6737 0.657282L10.6741 0.657466C10.7636 0.701523 10.8362 0.77403 10.8802 0.863566L10.8803 0.863845L13.6425 6.46364Z" stroke="#2F2E41" stroke-width="0.644118"/>
</svg>
