<svg width="24" height="29" viewBox="0 0 24 29" fill="none" xmlns="http://www.w3.org/2000/svg">
<path d="M16.7316 6.29179L16.8079 6.44653L16.9787 6.47135L23.2731 7.38612C23.2732 7.38615 23.2734 7.38617 23.2735 7.38619C23.5311 7.42471 23.705 7.66145 23.6664 7.91158L23.6659 7.91521C23.6515 8.01592 23.604 8.10888 23.5306 8.18085C23.5306 8.1809 23.5305 8.18095 23.5305 8.18101L18.9763 12.6212L18.8528 12.7416L18.882 12.9116L19.958 19.1822L19.9581 19.1825C20.0015 19.4345 19.8322 19.6746 19.5785 19.7183L19.5781 19.7184C19.4774 19.7359 19.3731 19.7194 19.2851 19.6726L19.2837 19.6719L13.6528 16.7114L13.5001 16.6311L13.3474 16.7114L7.71647 19.6719L7.71596 19.6721C7.63927 19.7126 7.55278 19.7308 7.46628 19.7246C7.37978 19.7185 7.29674 19.6882 7.22658 19.6372C7.15641 19.5863 7.10192 19.5167 7.0693 19.4363C7.03668 19.356 7.02723 19.2681 7.04201 19.1826L7.04208 19.1822L8.11818 12.9116L8.14736 12.7416L8.02384 12.6212L3.46903 8.18042L3.46901 8.18039C3.38046 8.09408 3.3298 7.97614 3.32817 7.85249C3.32653 7.72902 3.37391 7.60996 3.45989 7.52136C3.53182 7.44817 3.62467 7.40076 3.72525 7.38639L3.72603 7.38628L10.0214 6.47135L10.1922 6.44653L10.2685 6.29179L13.0819 0.588091C13.0821 0.58786 13.0822 0.58763 13.0823 0.587399C13.1981 0.356655 13.4783 0.263187 13.7069 0.37605L13.7073 0.376237C13.7985 0.421124 13.8724 0.494998 13.9173 0.58622L13.9174 0.586503L16.7316 6.29179Z" stroke="#2F2E41" stroke-width="0.656251"/>
<mask id="mask0_1_1012" style="mask-type:alpha" maskUnits="userSpaceOnUse" x="3" y="0" width="21" height="21">
<path d="M23.3213 7.06156L17.0259 6.14663L14.2117 0.441349C14.1348 0.285142 14.0084 0.158688 13.8522 0.0818244C13.4604 -0.111575 12.9843 0.0495912 12.7885 0.441349L9.97424 6.14663L3.67884 7.06156C3.50528 7.08636 3.34659 7.16818 3.2251 7.29215C3.07822 7.44312 2.99728 7.64622 3.00007 7.85683C3.00286 8.06745 3.08915 8.26833 3.23997 8.41536L7.79478 12.8561L6.71869 19.1267C6.69345 19.2726 6.70959 19.4226 6.76528 19.5598C6.82097 19.6969 6.91397 19.8157 7.03375 19.9027C7.15353 19.9897 7.29528 20.0414 7.44294 20.0519C7.5906 20.0625 7.73826 20.0314 7.86916 19.9623L13.5001 17.0018L19.131 19.9623C19.2847 20.0441 19.4632 20.0714 19.6343 20.0416C20.0657 19.9673 20.3558 19.5581 20.2814 19.1267L19.2053 12.8561L23.7602 8.41536C23.8841 8.29386 23.9659 8.13518 23.9907 7.96161C24.0577 7.5277 23.7552 7.12603 23.3213 7.06156Z" fill="#808080"/>
</mask>
<g mask="url(#mask0_1_1012)">
<rect x="0.375" y="-6.56245" width="13.125" height="35.4375" fill="#F6303F"/>
</g>
</svg>
