<svg width="377" height="377" viewBox="0 0 377 377" fill="none" xmlns="http://www.w3.org/2000/svg">
<circle cx="188.5" cy="188.5" r="188" fill="white" stroke="white"/>
<mask id="path-2-outside-1_1_1520" maskUnits="userSpaceOnUse" x="0" y="0" width="377" height="377" fill="black">
<rect fill="white" width="377" height="377"/>
<path d="M376 188.5C376 225.584 365.003 261.835 344.401 292.669C323.798 323.504 294.514 347.536 260.253 361.727C225.992 375.919 188.292 379.632 151.921 372.397C115.549 365.163 82.1398 347.305 55.9175 321.083C29.6951 294.86 11.8375 261.451 4.60276 225.079C-2.63197 188.708 1.08116 151.008 15.2726 116.747C29.464 82.4857 53.4964 53.2022 84.3306 32.5994C115.165 11.9967 151.416 1 188.5 1L188.5 188.5H376Z"/>
</mask>
<path d="M376 188.5C376 225.584 365.003 261.835 344.401 292.669C323.798 323.504 294.514 347.536 260.253 361.727C225.992 375.919 188.292 379.632 151.921 372.397C115.549 365.163 82.1398 347.305 55.9175 321.083C29.6951 294.86 11.8375 261.451 4.60276 225.079C-2.63197 188.708 1.08116 151.008 15.2726 116.747C29.464 82.4857 53.4964 53.2022 84.3306 32.5994C115.165 11.9967 151.416 1 188.5 1L188.5 188.5H376Z" fill="#2F2E41"/>
<path d="M376 188.5C376 225.584 365.003 261.835 344.401 292.669C323.798 323.504 294.514 347.536 260.253 361.727C225.992 375.919 188.292 379.632 151.921 372.397C115.549 365.163 82.1398 347.305 55.9175 321.083C29.6951 294.86 11.8375 261.451 4.60276 225.079C-2.63197 188.708 1.08116 151.008 15.2726 116.747C29.464 82.4857 53.4964 53.2022 84.3306 32.5994C115.165 11.9967 151.416 1 188.5 1L188.5 188.5H376Z" stroke="white" stroke-width="2" mask="url(#path-2-outside-1_1_1520)"/>
<mask id="path-3-outside-2_1_1520" maskUnits="userSpaceOnUse" x="188" y="187" width="189" height="42" fill="black">
<rect fill="white" x="188" y="187" width="189" height="42"/>
<path d="M376 188.5C376 201.633 374.62 214.729 371.883 227.574L188.5 188.5H376Z"/>
</mask>
<path d="M376 188.5C376 201.633 374.62 214.729 371.883 227.574L188.5 188.5H376Z" fill="#F6303F"/>
<path d="M376 188.5C376 201.633 374.62 214.729 371.883 227.574L188.5 188.5H376Z" fill="#707070"/>
<path d="M376 188.5C376 201.633 374.62 214.729 371.883 227.574L188.5 188.5H376Z" stroke="white" stroke-width="2" mask="url(#path-3-outside-2_1_1520)"/>
<mask id="path-4-outside-3_1_1520" maskUnits="userSpaceOnUse" x="188" y="120" width="189" height="70" fill="black">
<rect fill="white" x="188" y="120" width="189" height="70"/>
<path d="M376 188.5C376 165.524 371.777 142.744 363.542 121.294L188.5 188.5H376Z"/>
</mask>
<path d="M376 188.5C376 165.524 371.777 142.744 363.542 121.294L188.5 188.5H376Z" fill="#F6303F"/>
<path d="M376 188.5C376 165.524 371.777 142.744 363.542 121.294L188.5 188.5H376Z" fill="#707070"/>
<path d="M376 188.5C376 165.524 371.777 142.744 363.542 121.294L188.5 188.5H376Z" fill="#D2202C"/>
<path d="M376 188.5C376 165.524 371.777 142.744 363.542 121.294L188.5 188.5H376Z" stroke="white" stroke-width="2" mask="url(#path-4-outside-3_1_1520)"/>
</svg>
