<svg width="22" height="20" viewBox="0 0 22 20" fill="none" xmlns="http://www.w3.org/2000/svg">
<path d="M20.4397 7.21922L14.2607 6.32121L11.4985 0.721405C11.4231 0.568085 11.299 0.44397 11.1456 0.368527C10.7611 0.178703 10.2939 0.33689 10.1016 0.721405L7.33944 6.32121L1.16043 7.21922C0.990078 7.24355 0.834325 7.32386 0.715077 7.44555C0.570912 7.59372 0.491471 7.79307 0.494209 7.99979C0.496947 8.2065 0.58164 8.40368 0.729679 8.54798L5.20027 12.9066L4.14407 19.0613C4.1193 19.2045 4.13515 19.3517 4.18981 19.4863C4.24446 19.621 4.33575 19.7376 4.45331 19.823C4.57087 19.9084 4.71001 19.9591 4.85494 19.9694C4.99987 19.9798 5.14479 19.9493 5.27328 19.8814L10.8001 16.9757L16.3269 19.8814C16.4777 19.9617 16.653 19.9885 16.8209 19.9593C17.2443 19.8863 17.5291 19.4848 17.4561 19.0613L16.3999 12.9066L20.8705 8.54798C20.9921 8.42874 21.0725 8.27298 21.0968 8.10263C21.1625 7.67674 20.8656 7.28249 20.4397 7.21922Z" fill="#F6303F"/>
</svg>
