<svg width="20" height="20" viewBox="0 0 20 20" fill="none" xmlns="http://www.w3.org/2000/svg">
<path d="M11.25 5.625V1.25H6.875C6.37772 1.25 5.90081 1.44754 5.54917 1.79917C5.19754 2.15081 5 2.62772 5 3.125V6.50875C6.56293 6.06417 8.2328 6.18755 9.71342 6.857C11.194 7.52646 12.3897 8.6987 13.0882 10.1658C13.7868 11.6329 13.9432 13.3 13.5295 14.8714C13.1159 16.4428 12.1591 17.8169 10.8288 18.75H15.625C16.1223 18.75 16.5992 18.5525 16.9508 18.2008C17.3025 17.8492 17.5 17.3723 17.5 16.875V7.5H13.125C12.6277 7.5 12.1508 7.30246 11.7992 6.95083C11.4475 6.59919 11.25 6.12228 11.25 5.625ZM12.5 5.625V1.5625L17.1875 6.25H13.125C12.9592 6.25 12.8003 6.18415 12.6831 6.06694C12.5658 5.94973 12.5 5.79076 12.5 5.625ZM6.875 18.75C7.61369 18.75 8.34514 18.6045 9.02759 18.3218C9.71005 18.0391 10.3301 17.6248 10.8525 17.1025C11.3748 16.5801 11.7891 15.9601 12.0718 15.2776C12.3545 14.5951 12.5 13.8637 12.5 13.125C12.5 12.3863 12.3545 11.6549 12.0718 10.9724C11.7891 10.2899 11.3748 9.66985 10.8525 9.14752C10.3301 8.62519 9.71005 8.21086 9.02759 7.92818C8.34514 7.64549 7.61369 7.5 6.875 7.5C5.38316 7.5 3.95242 8.09263 2.89752 9.14752C1.84263 10.2024 1.25 11.6332 1.25 13.125C1.25 14.6168 1.84263 16.0476 2.89752 17.1025C3.95242 18.1574 5.38316 18.75 6.875 18.75ZM9.8175 12.6825C9.93486 12.7999 10.0008 12.959 10.0008 13.125C10.0008 13.291 9.93486 13.4501 9.8175 13.5675C9.70014 13.6849 9.54097 13.7508 9.375 13.7508C9.20903 13.7508 9.04986 13.6849 8.9325 13.5675L7.5 12.1337V15.625C7.5 15.7908 7.43415 15.9497 7.31694 16.0669C7.19973 16.1842 7.04076 16.25 6.875 16.25C6.70924 16.25 6.55027 16.1842 6.43306 16.0669C6.31585 15.9497 6.25 15.7908 6.25 15.625V12.1337L4.8175 13.5675C4.70014 13.6849 4.54097 13.7508 4.375 13.7508C4.20903 13.7508 4.04986 13.6849 3.9325 13.5675C3.81514 13.4501 3.74921 13.291 3.74921 13.125C3.74921 12.959 3.81514 12.7999 3.9325 12.6825L6.4325 10.1825C6.54894 10.0662 6.70665 10.0006 6.87125 10H6.87875C7.04172 10.0007 7.1979 10.0654 7.31375 10.18L7.3175 10.1838L9.8175 12.6838V12.6825Z" fill="#F6303F"/>
</svg>
