<svg width="21" height="16" viewBox="0 0 21 16" fill="none" xmlns="http://www.w3.org/2000/svg">
<path d="M3.42882 13.1414V9.32973L8.00971 11.9596C8.70253 12.3575 9.48751 12.5669 10.2864 12.5669C11.0854 12.5669 11.8704 12.3575 12.5632 11.9596L17.1441 9.33087V13.1414C17.1442 13.2165 17.1295 13.2909 17.1009 13.3603C17.0723 13.4298 17.0302 13.4929 16.9772 13.546L16.9749 13.5472L16.9726 13.5506L16.9646 13.5575L16.9383 13.5826L16.8469 13.6672C16.7352 13.7652 16.6205 13.8597 16.5029 13.9506C16.0924 14.2658 15.6561 14.5461 15.1988 14.7884C13.6862 15.5908 11.9987 16.007 10.2864 15.9999C8.57419 16.007 6.88673 15.5908 5.3741 14.7884C4.91714 14.546 4.48129 14.2658 4.07115 13.9506C3.92033 13.8344 3.77466 13.7116 3.63454 13.5826L3.60826 13.5575C3.55225 13.5035 3.50753 13.4389 3.47673 13.3675C3.44592 13.296 3.42963 13.2192 3.42882 13.1414ZM20.286 6.20836L11.994 10.9687C11.4744 11.2671 10.8856 11.4241 10.2864 11.4241C9.68725 11.4241 9.09851 11.2671 8.5789 10.9687L1.14294 6.69982V11.9985C1.14294 12.15 1.08273 12.2954 0.975559 12.4026C0.868388 12.5097 0.723032 12.57 0.571469 12.57C0.419906 12.57 0.274551 12.5097 0.16738 12.4026C0.0602083 12.2954 8.79264e-08 12.15 8.79264e-08 11.9985V5.71233C-5.70581e-05 5.60929 0.0277425 5.50816 0.0804565 5.41963C0.133171 5.33111 0.208838 5.25848 0.29945 5.20943L8.5789 0.455951C9.0984 0.157217 9.68718 0 10.2864 0C10.8857 0 11.4745 0.157217 11.994 0.455951L20.286 5.21743C20.3732 5.26751 20.4455 5.33969 20.4959 5.42668C20.5462 5.51367 20.5727 5.61239 20.5727 5.7129C20.5727 5.8134 20.5462 5.91212 20.4959 5.99911C20.4455 6.0861 20.3732 6.15828 20.286 6.20836Z" fill="#F6303F"/>
</svg>
