<svg width="26" height="20" viewBox="0 0 26 20" fill="none" xmlns="http://www.w3.org/2000/svg">
<path d="M7.91395 9.69697C9.20559 9.69697 10.4443 9.18615 11.3576 8.27688C12.271 7.36761 12.7841 6.13438 12.7841 4.84848C12.7841 3.56259 12.271 2.32936 11.3576 1.42009C10.4443 0.510821 9.20559 0 7.91395 0C6.62231 0 5.38358 0.510821 4.47025 1.42009C3.55693 2.32936 3.04383 3.56259 3.04383 4.84848C3.04383 6.13438 3.55693 7.36761 4.47025 8.27688C5.38358 9.18615 6.62231 9.69697 7.91395 9.69697ZM18.8717 9.69697C19.8405 9.69697 20.7695 9.31386 21.4545 8.6319C22.1395 7.94995 22.5243 7.02503 22.5243 6.06061C22.5243 5.09618 22.1395 4.17126 21.4545 3.48931C20.7695 2.80736 19.8405 2.42424 18.8717 2.42424C17.903 2.42424 16.9739 2.80736 16.289 3.48931C15.604 4.17126 15.2191 5.09618 15.2191 6.06061C15.2191 7.02503 15.604 7.94995 16.289 8.6319C16.9739 9.31386 17.903 9.69697 18.8717 9.69697ZM2.28287 11.5152C1.67742 11.5152 1.09676 11.7546 0.668637 12.1808C0.240516 12.607 0 13.1851 0 13.7879V14.5455C0 14.5455 0 20 7.91395 20C15.8279 20 15.8279 14.5455 15.8279 14.5455V13.7879C15.8279 13.1851 15.5874 12.607 15.1593 12.1808C14.7311 11.7546 14.1505 11.5152 13.545 11.5152H2.28287ZM15.6294 18.2358C16.4671 18.5739 17.5282 18.7879 18.8711 18.7879C25.2632 18.7879 25.2632 13.9394 25.2632 13.9394V13.7879C25.2632 13.1852 25.0227 12.6072 24.5947 12.181C24.1667 11.7548 23.5862 11.5153 22.9809 11.5152H16.1974C16.7448 12.1468 17.0454 12.9536 17.0442 13.7879V14.5727L17.0436 14.6073C17.04 14.7249 17.0319 14.8424 17.0193 14.9594C16.9891 15.2299 16.9401 15.498 16.8725 15.7618C16.642 16.666 16.218 17.5099 15.6294 18.2358Z" fill="#F6303F"/>
</svg>
