<svg width="27" height="26" viewBox="0 0 27 26" fill="none" xmlns="http://www.w3.org/2000/svg">
<path fill-rule="evenodd" clip-rule="evenodd" d="M8.4436 0H18.1936C22.6802 0 26.3186 3.63837 26.3186 8.125V17.875C26.3186 22.3616 22.6802 26 18.1936 26H8.4436C3.95698 26 0.318604 22.3616 0.318604 17.875V8.125C0.318604 3.63837 3.95698 0 8.4436 0ZM18.1936 23.5625C21.3299 23.5625 23.8811 21.0112 23.8811 17.875V8.125C23.8811 4.98875 21.3299 2.4375 18.1936 2.4375H8.44363C5.30738 2.4375 2.75613 4.98875 2.75613 8.125V17.875C2.75613 21.0112 5.30738 23.5625 8.44363 23.5625H18.1936Z" fill="white"/>
<path fill-rule="evenodd" clip-rule="evenodd" d="M6.8186 13C6.8186 9.41037 9.72898 6.5 13.3186 6.5C16.9082 6.5 19.8186 9.41037 19.8186 13C19.8186 16.5896 16.9082 19.5 13.3186 19.5C9.72898 19.5 6.8186 16.5896 6.8186 13ZM9.25613 13C9.25613 15.2393 11.0794 17.0625 13.3186 17.0625C15.5579 17.0625 17.3811 15.2393 17.3811 13C17.3811 10.7591 15.5579 8.9375 13.3186 8.9375C11.0794 8.9375 9.25613 10.7591 9.25613 13Z" fill="white"/>
<circle cx="20.3063" cy="6.01261" r="0.866125" fill="white"/>
</svg>
