<svg width="121" height="38" viewBox="0 0 121 38" fill="none" xmlns="http://www.w3.org/2000/svg">
<path d="M44.3418 5.76929H46.3653C46.5927 5.76929 46.8108 5.85871 46.9716 6.01788C47.1324 6.17704 47.2228 6.39292 47.2228 6.61802V28.0018C47.2228 28.1448 47.2801 28.2819 47.3822 28.3829C47.4843 28.484 47.6228 28.5408 47.7672 28.5408H60.5814C60.8088 28.5408 61.0269 28.6302 61.1877 28.7894C61.3485 28.9485 61.4388 29.1644 61.4388 29.3895V30.9087C61.4388 31.1338 61.3485 31.3497 61.1877 31.5089C61.0269 31.6681 60.8088 31.7575 60.5814 31.7575H44.3418C44.1144 31.7575 43.8963 31.6681 43.7355 31.5089C43.5747 31.3497 43.4844 31.1338 43.4844 30.9087V6.62226C43.4838 6.51045 43.5056 6.39963 43.5484 6.29616C43.5913 6.1927 43.6543 6.09864 43.734 6.01937C43.8137 5.94011 43.9084 5.87721 44.0127 5.8343C44.117 5.79138 44.2288 5.76929 44.3418 5.76929Z" fill="white"/>
<path d="M82.253 25.2691H69.0229C68.9157 25.2691 68.8108 25.3001 68.721 25.3581C68.6311 25.4161 68.5603 25.4987 68.5171 25.5959L66.0005 31.2569C65.9333 31.4094 65.8223 31.539 65.6813 31.6295C65.5403 31.72 65.3755 31.7676 65.2074 31.7662H63.2482C63.1009 31.7705 62.955 31.7372 62.8244 31.6694C62.6939 31.6017 62.5833 31.5018 62.5031 31.3794C62.423 31.257 62.3761 31.1162 62.3669 30.9706C62.3577 30.825 62.3866 30.6795 62.4508 30.5482L73.563 6.25749C73.6312 6.10726 73.7421 5.97992 73.8822 5.89101C74.0223 5.80209 74.1854 5.75544 74.3518 5.75674H76.9541C77.1198 5.75626 77.282 5.8033 77.4213 5.89217C77.5605 5.98103 77.6707 6.10792 77.7387 6.25749L88.8852 30.544C88.9468 30.674 88.9742 30.8173 88.9646 30.9606C88.9551 31.1039 88.9089 31.2425 88.8306 31.3633C88.7522 31.4841 88.6441 31.5833 88.5164 31.6516C88.3888 31.7198 88.2457 31.7548 88.1006 31.7534H86.0643C85.8969 31.754 85.7331 31.7061 85.5929 31.6156C85.4527 31.5251 85.3424 31.396 85.2754 31.2442L82.7417 25.5959C82.6997 25.5013 82.6315 25.4204 82.545 25.3626C82.4586 25.3048 82.3573 25.2724 82.253 25.2691ZM81.0269 21.7044L76.0238 10.4333C75.9897 10.3592 75.9348 10.2964 75.8656 10.2523C75.7965 10.2083 75.7159 10.1848 75.6337 10.1848C75.5514 10.1848 75.4709 10.2083 75.4017 10.2523C75.3326 10.2964 75.2777 10.3592 75.2436 10.4333L70.2319 21.7044C70.2035 21.7688 70.1917 21.8391 70.1976 21.9091C70.2034 21.9791 70.2267 22.0466 70.2654 22.1055C70.304 22.1643 70.3569 22.2128 70.4191 22.2465C70.4814 22.2802 70.5511 22.2981 70.622 22.2985H80.6453C80.7156 22.2967 80.7842 22.2778 80.8454 22.2435C80.9065 22.2093 80.9581 22.1607 80.9958 22.102C81.0335 22.0433 81.0561 21.9764 81.0615 21.907C81.0669 21.8377 81.055 21.7681 81.0269 21.7044Z" fill="white"/>
<path d="M93.3135 5.76929H95.337C95.5644 5.76929 95.7825 5.85871 95.9433 6.01788C96.1041 6.17704 96.1944 6.39292 96.1944 6.61802V30.913C96.1944 31.1381 96.1041 31.354 95.9433 31.5131C95.7825 31.6723 95.5644 31.7617 95.337 31.7617H93.3135C93.0861 31.7617 92.868 31.6723 92.7072 31.5131C92.5464 31.354 92.4561 31.1381 92.4561 30.913V6.62226C92.4555 6.51045 92.4773 6.39963 92.5201 6.29616C92.5629 6.1927 92.626 6.09864 92.7057 6.01937C92.7853 5.94011 92.8801 5.87721 92.9844 5.8343C93.0887 5.79138 93.2005 5.76929 93.3135 5.76929Z" fill="white"/>
<path d="M105.116 31.1543C103.748 30.7359 102.462 30.0901 101.313 29.2447C101.156 29.1256 101.046 28.9567 101.001 28.7665C100.956 28.5763 100.978 28.3765 101.064 28.2007L101.699 26.881C101.751 26.7654 101.828 26.6628 101.925 26.5806C102.022 26.4984 102.136 26.4386 102.259 26.4056C102.382 26.3727 102.511 26.3674 102.637 26.3902C102.763 26.413 102.881 26.4632 102.985 26.5372C103.924 27.1848 104.948 27.7017 106.029 28.0734C107.574 28.6318 109.206 28.919 110.852 28.9222C113.024 28.9222 114.649 28.5558 115.726 27.823C116.226 27.5151 116.637 27.0852 116.92 26.5747C117.203 26.0641 117.348 25.49 117.342 24.9076C117.357 24.5045 117.286 24.1027 117.134 23.7284C116.982 23.3542 116.752 23.0157 116.459 22.7349C115.835 22.1594 115.092 21.7251 114.281 21.4618C113.424 21.1789 112.205 20.845 110.625 20.4603C109 20.0945 107.402 19.6224 105.84 19.0472C104.638 18.5873 103.569 17.841 102.728 16.8744C101.87 15.8984 101.442 14.58 101.442 12.9193C101.425 11.5878 101.81 10.2817 102.548 9.1679C103.382 7.97474 104.548 7.04623 105.904 6.4944C107.671 5.77678 109.57 5.43554 111.478 5.49289C113.024 5.49076 114.563 5.69052 116.056 6.087C117.188 6.37256 118.274 6.81094 119.285 7.38981C119.465 7.49343 119.602 7.65885 119.668 7.85499C119.734 8.05112 119.726 8.26448 119.645 8.45497L119.062 9.85962C119.016 9.97083 118.947 10.0712 118.86 10.1542C118.772 10.2371 118.668 10.3007 118.554 10.3408C118.439 10.3809 118.318 10.3966 118.197 10.3868C118.076 10.377 117.959 10.342 117.853 10.284C116.996 9.82528 116.092 9.45826 115.156 9.18912C113.958 8.83137 112.716 8.64279 111.465 8.62896C109.338 8.62896 107.744 9.0123 106.68 9.77899C106.186 10.1035 105.781 10.5451 105.502 11.0639C105.224 11.5827 105.08 12.1621 105.086 12.7496C105.07 13.1543 105.143 13.5576 105.298 13.9324C105.453 14.3072 105.688 14.6447 105.986 14.9223C106.631 15.5047 107.392 15.9483 108.219 16.2251C109.408 16.6173 110.617 16.9445 111.842 17.2054C113.462 17.5687 115.055 18.0409 116.609 18.6185C117.805 19.0848 118.869 19.8285 119.713 20.7871C120.571 21.7518 120.999 23.0518 120.999 24.687C121.014 26.0161 120.624 27.3188 119.88 28.4256C119.029 29.6334 117.836 30.5651 116.451 31.1034C114.663 31.8053 112.749 32.1388 110.826 32.0837C108.884 32.0812 106.956 31.7674 105.116 31.1543Z" fill="white"/>
<path d="M36.4963 17.3457H27.5147L24.2737 10.1782C24.161 9.92482 23.976 9.70953 23.7414 9.55876C23.5069 9.40799 23.2329 9.32829 22.9532 9.32945H22.9104C22.6263 9.34015 22.352 9.4348 22.1228 9.60119C21.8936 9.76758 21.7199 9.99811 21.6242 10.2631L17.8987 20.363L15.0649 13.3609C14.9615 13.1045 14.7847 12.8836 14.5563 12.7253C14.3278 12.567 14.0576 12.4782 13.7788 12.4698H13.7188C13.4415 12.4721 13.1708 12.5534 12.939 12.7039C12.7071 12.8544 12.5239 13.0677 12.4112 13.3185L10.5635 17.3585H2.93668C3.26239 13.749 4.82122 10.3573 7.35606 7.74272C9.89089 5.12813 13.2503 3.44685 16.8802 2.97621C20.5101 2.50557 24.1937 3.27367 27.3233 5.15382C30.4529 7.03398 32.8416 9.91388 34.0955 13.3185C34.2256 13.6726 34.4923 13.961 34.8371 14.1205C35.1827 14.2776 35.5767 14.2944 35.9346 14.1672C36.1121 14.1033 36.2751 14.0054 36.4142 13.879C36.5534 13.7526 36.666 13.6004 36.7457 13.4309C36.8253 13.2614 36.8704 13.078 36.8784 12.8912C36.8863 12.7045 36.857 12.518 36.7921 12.3425C35.2642 8.19705 32.3104 4.71664 28.4489 2.51191C24.5873 0.30718 20.0648 -0.481023 15.6747 0.285601C11.2846 1.05223 7.30755 3.3247 4.44126 6.7043C1.57497 10.0839 0.00258418 14.3547 0 18.7674C0 18.9541 0.037148 19.1389 0.109323 19.3114C0.181498 19.4839 0.287287 19.6406 0.420649 19.7726C0.554011 19.9046 0.712335 20.0093 0.886581 20.0808C1.06083 20.1522 1.24758 20.189 1.43619 20.189H11.5023C11.7798 20.1877 12.051 20.1068 12.283 19.9562C12.5151 19.8056 12.6981 19.5916 12.8099 19.3403L13.6673 17.5027L16.6683 24.8655C16.7741 25.1288 16.9573 25.3546 17.1943 25.5135C17.4313 25.6724 17.7111 25.7571 17.9973 25.7567H18.0059C18.2878 25.7448 18.56 25.6511 18.7887 25.4874C19.0173 25.3237 19.1924 25.0971 19.292 24.8358L23.0819 14.5364L25.294 19.3487C25.4039 19.5972 25.5835 19.8092 25.8114 19.9597C26.0394 20.1101 26.3062 20.1926 26.5801 20.1975H34.9958C34.6564 23.7963 33.091 27.174 30.5567 29.7762C28.0223 32.3783 24.6695 34.0503 21.0487 34.5176C17.4278 34.9849 13.754 34.2198 10.6304 32.348C7.50668 30.4761 5.1187 27.6086 3.85841 24.2162C3.79211 24.0392 3.69033 23.8773 3.55919 23.7401C3.42805 23.603 3.27026 23.4936 3.0953 23.4184C2.92461 23.3385 2.7396 23.2929 2.55098 23.2842C2.36235 23.2755 2.17387 23.304 1.99643 23.3679C1.819 23.4319 1.65614 23.53 1.51729 23.6567C1.37844 23.7834 1.26636 23.936 1.18753 24.1059C1.10689 24.2747 1.06118 24.4578 1.05308 24.6444C1.04498 24.8309 1.07466 25.0172 1.14037 25.1923C2.6682 29.3377 5.62203 32.8181 9.48357 35.0228C13.3451 37.2275 17.8677 38.0157 22.2577 37.2491C26.6478 36.4825 30.6249 34.21 33.4912 30.8304C36.3575 27.4508 37.9299 23.18 37.9324 18.7674C37.9324 18.3903 37.7811 18.0287 37.5118 17.7621C37.2425 17.4955 36.8772 17.3457 36.4963 17.3457Z" fill="white"/>
</svg>
