<svg width="508" height="118" viewBox="0 0 508 118" fill="none" xmlns="http://www.w3.org/2000/svg">
<g filter="url(#filter0_d_1_1922)">
<path d="M309.829 53.3345C304.15 51.0884 298.338 49.2431 292.431 47.8108C288.06 46.802 283.745 45.5383 279.504 44.0253C276.691 43.0328 274.109 41.4105 271.934 39.2676C271 38.2886 270.27 37.1107 269.793 35.8111C269.316 34.5115 269.102 33.1195 269.166 31.7259C269.123 29.4585 269.676 27.2236 270.762 25.2721C271.847 23.3206 273.423 21.7298 275.311 20.6785C279.574 17.924 285.207 16.5393 292.085 16.5393C299.349 16.5291 306.563 17.8136 313.427 20.3396C314.245 20.7267 315.122 20.9514 316.016 21.0025C316.929 21.0311 317.836 20.8376 318.668 20.4368C319.5 20.0361 320.236 19.4386 320.818 18.6898C321.951 17.323 322.576 15.5631 322.576 13.7406C322.656 12.2162 322.251 10.7076 321.428 9.45724C320.604 8.20693 319.41 7.28764 318.036 6.84715C309.281 3.52264 300.038 1.88652 290.743 2.01572C284.044 1.83416 277.39 3.22734 271.255 6.09592C266.202 8.45845 261.882 12.2997 258.799 17.1728C255.992 21.8071 254.52 27.2139 254.564 32.7274C254.564 39.2528 256.294 44.5113 259.726 48.5178C263.06 52.3769 267.186 55.366 271.781 57.2527C277.62 59.5695 283.576 61.5366 289.622 63.1446C295.061 64.6176 299.31 65.9875 302.244 67.0776C304.863 67.9981 307.285 69.4596 309.372 71.3786C310.226 72.148 310.908 73.1107 311.368 74.1963C311.827 75.2819 312.053 76.463 312.03 77.6535C312.03 87.9644 304.666 92.9873 289.511 92.9873C280.496 93.0455 271.572 91.0726 263.325 87.1984C262.372 86.7447 261.338 86.5137 260.294 86.5209C259.388 86.4962 258.487 86.6794 257.654 87.0582C256.82 87.4369 256.073 88.0022 255.463 88.7156C254.249 90.0836 253.584 91.9013 253.609 93.7828C253.621 95.2943 254.071 96.7651 254.896 97.9955C255.682 99.2403 256.794 100.213 258.093 100.794C268.404 105.492 279.513 107.878 290.729 107.805C297.087 107.926 303.402 106.668 309.289 104.108C314.323 101.937 318.7 98.3345 321.939 93.6943C324.939 89.2844 326.53 83.9665 326.479 78.5225C326.479 71.732 324.818 66.2379 321.538 62.1871C318.381 58.2536 314.358 55.2123 309.829 53.3345Z" fill="white"/>
</g>
<g filter="url(#filter1_d_1_1922)">
<path d="M410.625 2.78479C409.645 2.76812 408.672 2.9652 407.768 3.36336C406.864 3.76151 406.05 4.35191 405.378 5.09709C404.69 5.82383 404.149 6.68702 403.785 7.63556C403.422 8.5841 403.244 9.59884 403.262 10.6203V67.8847C403.407 72.8213 402.156 77.6932 399.665 81.8916C397.345 85.6525 394.047 88.6461 390.157 90.5224C386.163 92.4439 381.817 93.439 377.419 93.439C373.022 93.439 368.676 92.4439 364.682 90.5224C360.787 88.6484 357.484 85.6546 355.16 81.8916C352.669 77.6932 351.418 72.8213 351.563 67.8847V10.6203C351.559 8.54335 350.767 6.55275 349.361 5.08414C347.954 3.61553 346.048 2.78868 344.059 2.78479C343.078 2.76812 342.105 2.9652 341.201 3.36336C340.298 3.76151 339.484 4.35191 338.811 5.09709C338.126 5.82578 337.586 6.68927 337.223 7.63736C336.86 8.58544 336.68 9.59927 336.695 10.6203V67.4577C336.409 74.9883 338.29 82.4357 342.097 88.8389C345.904 95.242 351.461 100.307 358.052 103.381C364.123 106.301 370.728 107.813 377.412 107.813C384.097 107.813 390.702 106.301 396.773 103.381C403.364 100.307 408.921 95.242 412.728 88.8389C416.534 82.4357 418.416 74.9883 418.13 67.4577V10.6203C418.126 8.54335 417.334 6.55275 415.928 5.08414C414.521 3.61553 412.614 2.78868 410.625 2.78479Z" fill="white"/>
</g>
<g filter="url(#filter2_d_1_1922)">
<path d="M497.085 62.1721C493.93 58.2528 489.918 55.218 485.403 53.3342C479.725 51.0839 473.912 49.2386 468.004 47.8104C463.633 46.7977 459.317 45.5341 455.075 44.0249C452.264 43.0364 449.686 41.4135 447.518 39.2672C446.569 38.2964 445.825 37.1217 445.336 35.8213C444.847 34.521 444.623 33.1248 444.68 31.7255C444.641 29.4587 445.195 27.225 446.281 25.2741C447.366 23.3232 448.94 21.732 450.826 20.678C455.089 17.9235 460.737 16.5388 467.616 16.5388C474.88 16.5286 482.095 17.8131 488.96 20.3391C489.778 20.7262 490.655 20.9509 491.548 21.002C492.46 21.0305 493.365 20.837 494.195 20.4362C495.025 20.0353 495.758 19.4377 496.338 18.6893C497.48 17.3282 498.106 15.5646 498.096 13.7401C498.176 12.2175 497.774 10.7103 496.953 9.46026C496.132 8.21019 494.941 7.28977 493.569 6.84656C484.808 3.52091 475.56 1.88478 466.259 2.01509C459.56 1.8374 452.907 3.23042 446.77 6.09532C441.713 8.45369 437.392 12.2959 434.313 17.1723C431.495 21.8025 430.018 27.2111 430.063 32.727C430.063 39.2524 431.807 44.5109 435.24 48.5175C438.574 52.3766 442.7 55.3657 447.296 57.2524C453.135 59.5713 459.092 61.5384 465.138 63.1444C470.564 64.6174 474.828 65.9873 477.762 67.0773C480.375 68.0014 482.793 69.4626 484.877 71.3783C485.734 72.145 486.418 73.1072 486.878 74.1934C487.338 75.2797 487.562 76.4622 487.534 77.6533C487.534 87.9643 480.171 92.9872 465.014 92.9872C456.003 93.0438 447.082 91.0709 438.839 87.1983C437.885 86.7458 436.852 86.5149 435.807 86.5208C434.901 86.4941 434 86.6765 433.166 87.0554C432.332 87.4342 431.585 88.0005 430.977 88.7155C429.894 89.957 429.246 91.5578 429.143 93.2481C429.039 94.9385 429.487 96.6151 430.409 97.9955C431.193 99.2432 432.305 100.217 433.607 100.794C443.914 105.49 455.02 107.876 466.232 107.805C472.595 107.926 478.915 106.668 484.808 104.108C489.84 101.933 494.216 98.3313 497.459 93.6943C500.454 89.2814 502.044 83.9654 501.999 78.5223C502.027 71.7171 500.366 66.2229 497.085 62.1721Z" fill="white"/>
</g>
<g filter="url(#filter3_d_1_1922)">
<path d="M171.58 14.5058C171.933 13.5027 172.112 12.4415 172.11 11.3722C172.155 10.2444 171.986 9.11868 171.613 8.06028C171.24 7.00189 170.67 6.03209 169.937 5.20743C169.177 4.39793 168.263 3.76471 167.256 3.3486C166.249 2.93249 165.17 2.74265 164.089 2.79126C162.426 2.7838 160.807 3.34956 159.479 4.40198C158.159 5.43776 157.13 6.82899 156.499 8.42887L127.047 85.6281L97.6231 8.51681C96.9924 6.91294 95.9572 5.52059 94.6292 4.48992C93.3063 3.43861 91.692 2.87279 90.0339 2.8792C88.9507 2.83216 87.8701 3.02273 86.8608 3.43869C85.8515 3.85466 84.9356 4.48695 84.1713 5.29537C83.4435 6.12306 82.8782 7.09356 82.5078 8.15145C82.1374 9.20933 81.9692 10.3337 82.0129 11.4601C82.0106 12.5294 82.1898 13.5906 82.542 14.5938L115.475 98.558C118.26 104.913 122.438 106.246 125.571 106.246H128.509C131.587 106.246 135.848 104.913 138.605 98.558L171.539 14.5791L171.58 14.5058Z" fill="white"/>
</g>
<g filter="url(#filter4_d_1_1922)">
<path d="M247.541 94.5491L214.345 10.5469V10.4736C211.537 4.11672 207.324 2.78381 204.164 2.78381H201.159C198.056 2.78381 193.759 4.11672 190.979 10.4736L157.769 94.4905C157.412 95.4936 157.232 96.5553 157.235 97.625C157.153 99.9021 157.941 102.12 159.426 103.792C160.194 104.599 161.115 105.229 162.131 105.643C163.147 106.057 164.234 106.244 165.323 106.194C167 106.201 168.633 105.635 169.971 104.582C171.305 103.55 172.344 102.157 172.976 100.554L202.704 23.3926L220.524 69.7658L232.375 100.525C232.543 100.926 232.73 101.317 232.937 101.697C233.552 102.841 234.389 103.839 235.395 104.626C236.729 105.676 238.357 106.242 240.028 106.238C241.12 106.288 242.209 106.101 243.227 105.687C244.245 105.274 245.169 104.643 245.94 103.835C246.674 103.007 247.243 102.036 247.617 100.978C247.99 99.92 248.16 98.7956 248.117 97.669C248.105 96.6015 247.91 95.5448 247.541 94.5491Z" fill="white"/>
</g>
<g filter="url(#filter5_d_1_1922)">
<path d="M95.6301 94.5881L62.6608 10.5502V10.4769C59.8727 4.11728 55.6905 2.78381 52.54 2.78381H49.6264C46.5316 2.78381 42.2798 4.11728 39.5056 10.4769L6.53629 94.5295C6.18255 95.533 6.00312 96.5951 6.00655 97.6653C5.96359 98.7924 6.13231 99.9174 6.50307 100.976C6.87382 102.034 7.43936 103.006 8.16735 103.835C8.93266 104.642 9.84994 105.273 10.8605 105.687C11.8711 106.101 12.9528 106.288 14.0363 106.238C15.6959 106.242 17.3114 105.676 18.6366 104.626C19.9612 103.589 20.9964 102.197 21.6339 100.596L51.0205 23.4014L68.711 69.7798L80.4768 100.552C80.6836 101.059 80.9258 101.549 81.2017 102.018C81.8005 103.022 82.5709 103.901 83.474 104.611C84.7992 105.661 86.4147 106.227 88.0743 106.223C89.1578 106.274 90.2395 106.086 91.2501 105.673C92.2607 105.259 93.178 104.628 93.9433 103.82C94.6713 102.991 95.2368 102.02 95.6075 100.961C95.9783 99.9028 96.147 98.7777 96.1041 97.6507C96.1171 96.6086 95.9567 95.5721 95.6301 94.5881Z" fill="white"/>
</g>
<defs>
<filter id="filter0_d_1_1922" x="247.608" y="0" width="84.8721" height="117.813" filterUnits="userSpaceOnUse" color-interpolation-filters="sRGB">
<feFlood flood-opacity="0" result="BackgroundImageFix"/>
<feColorMatrix in="SourceAlpha" type="matrix" values="0 0 0 0 0 0 0 0 0 0 0 0 0 0 0 0 0 0 127 0" result="hardAlpha"/>
<feOffset dy="4"/>
<feGaussianBlur stdDeviation="3"/>
<feComposite in2="hardAlpha" operator="out"/>
<feColorMatrix type="matrix" values="0 0 0 0 0 0 0 0 0 0 0 0 0 0 0 0 0 0 0.4 0"/>
<feBlend mode="normal" in2="BackgroundImageFix" result="effect1_dropShadow_1_1922"/>
<feBlend mode="normal" in="SourceGraphic" in2="effect1_dropShadow_1_1922" result="shape"/>
</filter>
<filter id="filter1_d_1_1922" x="330.667" y="0.783813" width="93.4912" height="117.03" filterUnits="userSpaceOnUse" color-interpolation-filters="sRGB">
<feFlood flood-opacity="0" result="BackgroundImageFix"/>
<feColorMatrix in="SourceAlpha" type="matrix" values="0 0 0 0 0 0 0 0 0 0 0 0 0 0 0 0 0 0 127 0" result="hardAlpha"/>
<feOffset dy="4"/>
<feGaussianBlur stdDeviation="3"/>
<feComposite in2="hardAlpha" operator="out"/>
<feColorMatrix type="matrix" values="0 0 0 0 0 0 0 0 0 0 0 0 0 0 0 0 0 0 0.4 0"/>
<feBlend mode="normal" in2="BackgroundImageFix" result="effect1_dropShadow_1_1922"/>
<feBlend mode="normal" in="SourceGraphic" in2="effect1_dropShadow_1_1922" result="shape"/>
</filter>
<filter id="filter2_d_1_1922" x="423.128" y="0" width="84.8721" height="117.813" filterUnits="userSpaceOnUse" color-interpolation-filters="sRGB">
<feFlood flood-opacity="0" result="BackgroundImageFix"/>
<feColorMatrix in="SourceAlpha" type="matrix" values="0 0 0 0 0 0 0 0 0 0 0 0 0 0 0 0 0 0 127 0" result="hardAlpha"/>
<feOffset dy="4"/>
<feGaussianBlur stdDeviation="3"/>
<feComposite in2="hardAlpha" operator="out"/>
<feColorMatrix type="matrix" values="0 0 0 0 0 0 0 0 0 0 0 0 0 0 0 0 0 0 0.4 0"/>
<feBlend mode="normal" in2="BackgroundImageFix" result="effect1_dropShadow_1_1922"/>
<feBlend mode="normal" in="SourceGraphic" in2="effect1_dropShadow_1_1922" result="shape"/>
</filter>
<filter id="filter3_d_1_1922" x="76.0061" y="0.783813" width="102.111" height="115.462" filterUnits="userSpaceOnUse" color-interpolation-filters="sRGB">
<feFlood flood-opacity="0" result="BackgroundImageFix"/>
<feColorMatrix in="SourceAlpha" type="matrix" values="0 0 0 0 0 0 0 0 0 0 0 0 0 0 0 0 0 0 127 0" result="hardAlpha"/>
<feOffset dy="4"/>
<feGaussianBlur stdDeviation="3"/>
<feComposite in2="hardAlpha" operator="out"/>
<feColorMatrix type="matrix" values="0 0 0 0 0 0 0 0 0 0 0 0 0 0 0 0 0 0 0.4 0"/>
<feBlend mode="normal" in2="BackgroundImageFix" result="effect1_dropShadow_1_1922"/>
<feBlend mode="normal" in="SourceGraphic" in2="effect1_dropShadow_1_1922" result="shape"/>
</filter>
<filter id="filter4_d_1_1922" x="151.229" y="0.783813" width="102.894" height="115.462" filterUnits="userSpaceOnUse" color-interpolation-filters="sRGB">
<feFlood flood-opacity="0" result="BackgroundImageFix"/>
<feColorMatrix in="SourceAlpha" type="matrix" values="0 0 0 0 0 0 0 0 0 0 0 0 0 0 0 0 0 0 127 0" result="hardAlpha"/>
<feOffset dy="4"/>
<feGaussianBlur stdDeviation="3"/>
<feComposite in2="hardAlpha" operator="out"/>
<feColorMatrix type="matrix" values="0 0 0 0 0 0 0 0 0 0 0 0 0 0 0 0 0 0 0.4 0"/>
<feBlend mode="normal" in2="BackgroundImageFix" result="effect1_dropShadow_1_1922"/>
<feBlend mode="normal" in="SourceGraphic" in2="effect1_dropShadow_1_1922" result="shape"/>
</filter>
<filter id="filter5_d_1_1922" x="0" y="0.783813" width="102.111" height="115.462" filterUnits="userSpaceOnUse" color-interpolation-filters="sRGB">
<feFlood flood-opacity="0" result="BackgroundImageFix"/>
<feColorMatrix in="SourceAlpha" type="matrix" values="0 0 0 0 0 0 0 0 0 0 0 0 0 0 0 0 0 0 127 0" result="hardAlpha"/>
<feOffset dy="4"/>
<feGaussianBlur stdDeviation="3"/>
<feComposite in2="hardAlpha" operator="out"/>
<feColorMatrix type="matrix" values="0 0 0 0 0 0 0 0 0 0 0 0 0 0 0 0 0 0 0.4 0"/>
<feBlend mode="normal" in2="BackgroundImageFix" result="effect1_dropShadow_1_1922"/>
<feBlend mode="normal" in="SourceGraphic" in2="effect1_dropShadow_1_1922" result="shape"/>
</filter>
</defs>
</svg>
