<svg width="647" height="48" viewBox="0 0 647 48" fill="none" xmlns="http://www.w3.org/2000/svg">
<g filter="url(#filter0_d_1_1929)">
<g filter="url(#filter1_d_1_1929)">
<path d="M18.0668 5.00918C19.3284 5.00918 20.4254 5.00927 21.3578 5.10211C22.2151 5.15129 23.0694 5.24429 23.9175 5.38067C24.7037 5.51065 25.5081 5.67779 26.3674 5.88204L26.0018 8.18442L23.5335 7.90586L21.1201 7.75717C20.2608 7.75717 19.2918 7.75717 18.0668 7.75717C16.2046 7.65933 14.355 8.11779 12.7464 9.07564C11.3359 10.118 10.353 11.6515 9.98558 13.3833C8.88866 18.7603 8.88866 24.3087 9.98558 29.6858C10.353 31.4176 11.3359 32.9511 12.7464 33.9934C14.355 34.9513 16.2046 35.4097 18.0668 35.3119C19.8952 35.3119 21.5224 35.3117 22.8205 35.1632C24.1186 35.0147 25.3984 34.9404 26.6417 34.7548L26.9891 37.02C25.7038 37.3572 24.3962 37.5992 23.0765 37.7441C21.4127 37.9242 19.7399 38.0048 18.0668 37.9855C15.6165 38.0986 13.1807 37.5475 11.0094 36.3887C9.14064 35.206 7.77201 33.3593 7.16993 31.2083C5.61002 24.8563 5.61002 18.2127 7.16993 11.8608C7.77201 9.70976 9.14064 7.86309 11.0094 6.68033C13.1737 5.4958 15.6099 4.91889 18.0668 5.00918Z" fill="white"/>
</g>
<g filter="url(#filter2_d_1_1929)">
<path d="M40.9999 14.0138C43.0106 13.9179 45.0145 14.3214 46.8484 15.1913C48.3279 15.9872 49.4614 17.3459 50.0171 18.9895C51.2962 23.5715 51.2962 28.4418 50.0171 33.0238C49.4614 34.6674 48.3279 36.0261 46.8484 36.822C43.0932 38.3927 38.9067 38.3927 35.1515 36.822C33.672 36.0208 32.5343 34.6648 31.9647 33.0238C30.6609 28.4456 30.6609 23.5677 31.9647 18.9895C32.5343 17.3485 33.672 15.9925 35.1515 15.1913C36.9854 14.3214 38.9893 13.9179 40.9999 14.0138ZM40.9999 16.5966C39.5604 16.5239 38.1255 16.817 36.8173 17.4511C35.7569 18.0823 34.9763 19.1263 34.6445 20.3568C33.7632 24.0988 33.7632 28.0095 34.6445 31.7515C34.8058 32.3648 35.0807 32.9388 35.4535 33.4406C35.8263 33.9424 36.2897 34.3623 36.8173 34.6762C38.1255 35.3104 39.5604 35.6035 40.9999 35.5308C42.4331 35.596 43.8605 35.3031 45.1645 34.6762C45.6967 34.3659 46.1645 33.9474 46.5407 33.4452C46.9169 32.9431 47.1939 32.3673 47.3554 31.7515C48.2367 28.0095 48.2367 24.0988 47.3554 20.3568C47.1917 19.7445 46.9138 19.1723 46.5377 18.6735C46.1616 18.1748 45.6949 17.7593 45.1645 17.4511C43.8605 16.8242 42.4331 16.5314 40.9999 16.5966Z" fill="white"/>
</g>
<g filter="url(#filter3_d_1_1929)">
<path d="M60.2945 14.5595L60.5056 18.8126L60.7342 19.5028V37H57.9731V14.6156L60.2945 14.5595ZM70.2307 14.0001C74.0528 14.0001 75.9638 16.0518 75.9638 20.1557V36.944H73.2028V20.8832C73.3192 19.6776 73.0123 18.4689 72.341 17.4883C71.9665 17.1235 71.5245 16.8454 71.043 16.672C70.5616 16.4985 70.0513 16.4335 69.5448 16.4809C68.0909 16.4869 66.6581 16.8508 65.3593 17.5441C63.6729 18.4443 62.0402 19.4535 60.4704 20.566L60.3297 18.3836C61.8778 17.0724 63.5731 15.9696 65.3769 15.1006C66.902 14.3696 68.5572 13.9943 70.2307 14.0001Z" fill="white"/>
</g>
<g filter="url(#filter4_d_1_1929)">
<path d="M85.9057 5V14.206C85.9057 15.1082 85.9057 16.0472 85.8131 16.8021C85.7661 17.5558 85.6733 18.3058 85.5352 19.0483L85.8502 19.7296V37H82.96V5.01843L85.9057 5ZM95.9288 14.206C99.943 14.206 101.95 16.2312 101.95 20.2818V36.8526H99.0228V20.9999C99.135 19.8108 98.8128 18.6214 98.115 17.649C97.7301 17.2859 97.2712 17.0092 96.7693 16.8376C96.2675 16.6661 95.7344 16.6038 95.2062 16.6547C93.6656 16.6672 92.1469 17.0195 90.7598 17.6859C88.9693 18.5668 87.2422 19.5696 85.5908 20.687L85.4981 18.5327C87.134 17.2748 88.9048 16.2004 90.7783 15.3291C92.3997 14.6167 94.1562 14.2589 95.9288 14.2797V14.206Z" fill="white"/>
</g>
<g filter="url(#filter5_d_1_1929)">
<path d="M117.789 14.0378C120.209 13.8336 122.626 14.4609 124.672 15.8244C125.416 16.4692 126.005 17.2859 126.394 18.2096C126.783 19.1334 126.96 20.1389 126.912 21.1466C127.044 22.8109 126.647 24.4741 125.783 25.8795C125.302 26.4629 124.694 26.9163 124.009 27.2009C123.324 27.4855 122.583 27.593 121.85 27.5141H109.103V25.1001H121.158C121.598 25.1588 122.044 25.0843 122.445 24.8855C122.845 24.6867 123.182 24.3719 123.416 23.9787C123.839 23.1034 124.028 22.1248 123.962 21.1466C124.007 20.4778 123.895 19.8076 123.634 19.1946C123.374 18.5816 122.974 18.0443 122.469 17.63C121.067 16.8103 119.464 16.4402 117.862 16.5657C116.432 16.4962 115.007 16.7896 113.71 17.421C113.187 17.7243 112.727 18.1323 112.355 18.6215C111.983 19.1107 111.707 19.6716 111.543 20.2721C111.066 22.046 110.851 23.8856 110.906 25.7273C110.83 27.7292 111.089 29.7295 111.671 31.6386C111.872 32.2707 112.191 32.8551 112.61 33.3575C113.029 33.8599 113.539 34.2706 114.111 34.5659C115.499 35.1681 116.997 35.4471 118.499 35.3833C119.756 35.3833 121.085 35.3832 122.451 35.2311C123.816 35.0791 125.018 34.9841 126.093 34.832L126.42 36.847C125.636 37.1432 124.825 37.3533 123.999 37.4741C123.015 37.6262 122.014 37.7401 120.976 37.8352C119.938 37.9302 119.009 37.9874 118.19 37.9874C116.148 38.0793 114.115 37.6691 112.253 36.7899C110.755 35.9796 109.59 34.6285 108.976 32.9883C107.604 28.4026 107.604 23.4893 108.976 18.9036C109.536 17.2596 110.676 15.9002 112.162 15.1021C113.936 14.307 115.86 13.9432 117.789 14.0378Z" fill="white"/>
</g>
<g filter="url(#filter6_d_1_1929)">
<path d="M141.859 14.0113C142.445 14.0113 143.12 14.0113 143.883 14.0113C144.669 14.0679 145.451 14.1693 146.227 14.3151C146.976 14.4417 147.712 14.6389 148.429 14.9042L148.038 16.8042C147.115 16.6902 146.12 16.5951 145.037 16.5191C143.954 16.4431 143.031 16.5191 142.303 16.5191C140.79 16.455 139.283 16.74 137.882 17.355C137.326 17.6375 136.828 18.0372 136.419 18.5302C136.011 19.0231 135.699 19.5992 135.503 20.224C134.529 23.9524 134.529 27.8953 135.503 31.6238C135.696 32.255 136.006 32.8381 136.415 33.3377C136.824 33.8373 137.323 34.2431 137.882 34.5308C139.285 35.1358 140.792 35.4145 142.303 35.3479C142.747 35.3479 143.315 35.3479 144.079 35.3479C144.842 35.3479 145.535 35.3477 146.316 35.1957C147.097 35.0437 147.86 35.0437 148.571 34.9297L148.926 36.9438C147.805 37.3023 146.659 37.5628 145.499 37.7228C144.322 37.8926 143.136 37.9814 141.948 37.9888C139.948 38.0739 137.957 37.6711 136.124 36.8109C134.65 36.0198 133.509 34.6629 132.929 33.0109C131.603 28.4252 131.603 23.5179 132.929 18.9321C133.496 17.2721 134.641 15.9108 136.124 15.1322C137.935 14.3104 139.894 13.9277 141.859 14.0113Z" fill="white"/>
</g>
<g filter="url(#filter7_d_1_1929)">
<path d="M157.047 5.00857C157.164 4.98981 157.284 5.00192 157.397 5.04426C157.51 5.0866 157.612 5.15792 157.696 5.25244C157.78 5.34697 157.844 5.46218 157.881 5.58897C157.919 5.71577 157.93 5.8508 157.913 5.98316V8.73808C157.93 8.87044 157.919 9.00524 157.881 9.13204C157.844 9.25883 157.78 9.37404 157.696 9.46857C157.612 9.56309 157.51 9.63441 157.397 9.67675C157.284 9.7191 157.164 9.73143 157.047 9.71267H155.814C155.695 9.73471 155.573 9.72472 155.458 9.68385C155.343 9.64297 155.238 9.5722 155.152 9.47726C155.066 9.38232 155.001 9.26598 154.963 9.13753C154.924 9.00908 154.913 8.87224 154.93 8.73808V5.98316C154.917 5.84979 154.93 5.71443 154.97 5.58783C155.01 5.46123 155.075 5.34671 155.16 5.25267C155.245 5.15864 155.348 5.08771 155.462 5.0454C155.575 5.00309 155.695 4.99053 155.814 5.00857H157.047ZM157.713 14.5103V37H155.147V14.5103H157.713Z" fill="white"/>
</g>
<g filter="url(#filter8_d_1_1929)">
<path d="M167.247 14.5723L167.482 18.823L167.753 19.5128V37H164.917V14.6283L167.247 14.5723ZM176.585 14.0132C177.351 13.9636 178.12 14.0751 178.843 14.3411C179.566 14.6071 180.23 15.0219 180.793 15.5605C181.324 16.1878 181.729 16.9181 181.983 17.7088C182.238 18.4995 182.337 19.3346 182.274 20.1652V36.944H179.529V20.8924C179.647 19.6819 179.304 18.4717 178.572 17.5181C178.183 17.1525 177.727 16.8727 177.23 16.6963C176.733 16.5199 176.206 16.4507 175.682 16.4926C174.852 16.4955 174.028 16.6404 173.244 16.9214C172.34 17.2451 171.478 17.6834 170.679 18.2263C169.776 18.8415 168.692 19.6059 167.428 20.5753L167.247 18.4316C168.664 17.1023 170.25 15.9794 171.961 15.0944C173.402 14.3733 174.984 14.0035 176.585 14.0132ZM191.143 14.0132C191.919 13.9594 192.698 14.0706 193.431 14.34C194.164 14.6093 194.836 15.0311 195.405 15.5791C196.465 16.8469 196.997 18.4949 196.886 20.1652V36.944H194.051V20.8924C194.123 19.701 193.791 18.5208 193.111 17.5552C192.733 17.1674 192.276 16.8712 191.773 16.6874C191.27 16.5037 190.734 16.4372 190.203 16.4926C189.354 16.4893 188.51 16.6407 187.711 16.94C186.823 17.2906 185.975 17.7407 185.182 18.2823C184.279 18.8789 183.232 19.6432 182.003 20.5753L181.823 18.4316C183.239 17.0934 184.832 15.9697 186.555 15.0944C187.985 14.3801 189.554 14.0105 191.143 14.0132Z" fill="white"/>
</g>
<g filter="url(#filter9_d_1_1929)">
<path d="M212.74 14.0378C215.159 13.8336 217.577 14.4609 219.623 15.8244C220.366 16.4692 220.956 17.2859 221.345 18.2096C221.733 19.1334 221.911 20.1389 221.863 21.1466C221.995 22.8109 221.598 24.4741 220.734 25.8795C220.253 26.4629 219.644 26.9163 218.959 27.2009C218.275 27.4855 217.534 27.593 216.801 27.5141H204.054V25.1001H216.109C216.548 25.1588 216.995 25.0843 217.395 24.8855C217.796 24.6867 218.133 24.3719 218.367 23.9787C218.79 23.1034 218.979 22.1248 218.913 21.1466C218.958 20.4778 218.845 19.8076 218.585 19.1946C218.325 18.5816 217.925 18.0443 217.42 17.63C216.018 16.8103 214.415 16.4402 212.813 16.5657C211.383 16.4962 209.958 16.7896 208.661 17.421C208.138 17.7243 207.677 18.1323 207.306 18.6215C206.934 19.1107 206.658 19.6716 206.494 20.2721C206.007 22.0441 205.792 23.8852 205.857 25.7273C205.781 27.7292 206.04 29.7295 206.621 31.6386C206.822 32.2707 207.142 32.8551 207.561 33.3575C207.979 33.8599 208.49 34.2706 209.061 34.5659C210.45 35.1681 211.948 35.4471 213.45 35.3833C214.706 35.3833 216.036 35.3832 217.401 35.2311C218.767 35.0791 219.969 34.9841 221.043 34.832L221.371 36.847C220.587 37.1432 219.775 37.3533 218.949 37.4741C217.966 37.6262 216.964 37.7401 215.926 37.8352C214.889 37.9302 213.96 37.9874 213.14 37.9874C211.099 38.0793 209.066 37.6691 207.204 36.7899C205.706 35.9796 204.541 34.6285 203.926 32.9883C202.555 28.4026 202.555 23.4893 203.926 18.9036C204.486 17.2648 205.617 15.907 207.095 15.1021C208.876 14.3099 210.805 13.9462 212.74 14.0378Z" fill="white"/>
</g>
<g filter="url(#filter10_d_1_1929)">
<path d="M230.335 14.5595L230.558 18.8126L230.799 19.5028V37H227.885V14.6156L230.335 14.5595ZM240.842 14.0001C244.851 14.0001 246.875 16.0518 246.875 20.1557V36.944H243.886V20.8832C244.009 19.6776 243.685 18.4689 242.976 17.4883C242.582 17.1215 242.116 16.8421 241.607 16.6686C241.099 16.495 240.56 16.4311 240.025 16.4809C238.49 16.4869 236.978 16.8508 235.607 17.5441C233.827 18.4443 232.103 19.4535 230.446 20.566L230.298 18.3836C231.932 17.0724 233.721 15.9697 235.625 15.1006C237.242 14.3692 238.995 13.994 240.767 14.0001H240.842Z" fill="white"/>
</g>
<g filter="url(#filter11_d_1_1929)">
<path d="M264.865 14.1507V16.6711H251.872V14.3851L255.782 14.1507H264.865ZM258.094 7.05867V31.7929C258.06 32.2646 258.107 32.7396 258.233 33.1895C258.359 33.6393 258.56 34.0548 258.826 34.4108C259.444 35.0128 260.238 35.3074 261.039 35.2314H264.366L264.682 37.5171C264.217 37.6545 263.744 37.7589 263.268 37.8298C262.736 37.8298 262.22 37.9667 261.721 37.9863H260.523C259.853 38.0403 259.18 37.9347 258.546 37.6762C257.911 37.4177 257.327 37.0116 256.83 36.4818C256.38 35.8934 256.035 35.2039 255.818 34.4551C255.601 33.7064 255.515 32.9139 255.565 32.1251V7L258.094 7.05867Z" fill="white"/>
</g>
<g filter="url(#filter12_d_1_1929)">
<path d="M279.884 14.0142C281.887 13.917 283.884 14.3205 285.709 15.1917C287.191 15.9829 288.325 17.3433 288.875 18.99C290.178 23.5683 290.178 28.4462 288.875 33.0246C288.325 34.6712 287.191 36.0317 285.709 36.8229C281.964 38.3924 277.787 38.3924 274.041 36.8229C272.558 36.0277 271.42 34.6695 270.857 33.0246C269.531 28.4499 269.531 23.5646 270.857 18.99C271.42 17.345 272.558 15.9868 274.041 15.1917C275.873 14.3217 277.875 13.9183 279.884 14.0142ZM279.884 16.597C278.446 16.5243 277.012 16.8174 275.705 17.4515C274.64 18.0805 273.854 19.1244 273.517 20.3573C272.636 24.0994 272.636 28.0102 273.517 31.7523C273.848 32.9932 274.635 34.0453 275.705 34.677C278.373 35.8171 281.359 35.8171 284.027 34.677C284.561 34.3678 285.032 33.9498 285.411 33.4476C285.79 32.9455 286.07 32.3692 286.234 31.7523C287.114 28.0102 287.114 24.0994 286.234 20.3573C286.066 19.7443 285.785 19.1719 285.407 18.6733C285.028 18.1746 284.559 17.7595 284.027 17.4515C282.731 16.8227 281.31 16.5297 279.884 16.597Z" fill="white"/>
</g>
<g filter="url(#filter13_d_1_1929)">
<path d="M316.056 5.0001C316.325 4.99678 316.588 5.07488 316.813 5.22439C317.037 5.37796 317.195 5.61164 317.256 5.87855L327.832 37H324.713L315.835 10.0093C315.705 9.5794 315.576 9.13088 315.41 8.68228L315.004 7.41138H313.675C313.564 7.80391 313.435 8.23368 313.287 8.68228C313.14 9.13088 313.01 9.5794 312.863 10.0093L303.966 37H300.846L311.441 5.87855C311.522 5.62087 311.676 5.39322 311.884 5.22439C312.102 5.07529 312.36 4.99705 312.623 5.0001H316.056ZM322.332 23.6916V26.3459H306.31V23.6916H322.332Z" fill="white"/>
</g>
<g filter="url(#filter14_d_1_1929)">
<path d="M334.842 5V14.0853C334.842 15.0574 334.842 15.9547 334.842 16.6464C334.803 17.4062 334.708 18.162 334.558 18.9083L334.842 19.6187V36.6865L331.887 36.537V5.09333L334.842 5ZM343.595 14.3471C344.786 14.2446 345.985 14.4392 347.081 14.9128C348.176 15.3864 349.134 16.1238 349.865 17.0576C351.374 19.8346 352.033 22.9847 351.76 26.1243C351.782 27.8813 351.617 29.6358 351.267 31.3587C351.009 32.708 350.453 33.9845 349.638 35.0976C348.865 36.0906 347.82 36.8434 346.626 37.2661C345.138 37.7909 343.564 38.0381 341.984 37.9952C341.189 37.9952 340.374 37.9952 339.503 37.9952C338.631 37.9952 337.779 37.8269 336.907 37.6961C336.036 37.5652 335.146 37.3969 334.293 37.21C333.457 37.0291 332.634 36.7918 331.83 36.4996L334.217 34.5182C335.165 34.7549 336.074 34.9605 336.945 35.135C337.784 35.2984 338.631 35.4107 339.484 35.4713H341.928C343.292 35.5399 344.649 35.236 345.849 34.5928C346.913 33.9256 347.679 32.8825 347.99 31.6766C348.484 29.8932 348.707 28.0472 348.653 26.1991C348.703 24.3835 348.525 22.5688 348.122 20.7965C347.874 19.6332 347.2 18.6015 346.228 17.899C345.128 17.247 343.853 16.9404 342.572 17.0202C341.232 17.0323 339.921 17.4075 338.783 18.1046C337.284 19.0069 335.847 20.0061 334.483 21.0956L334.293 19.0019C335.216 18.087 336.224 17.2608 337.305 16.5344C338.252 15.8822 339.285 15.3601 340.374 14.9826C341.405 14.6083 342.496 14.4185 343.595 14.4219V14.3471Z" fill="white"/>
</g>
<g filter="url(#filter15_d_1_1929)">
<path d="M366.679 14.0369C369.099 13.8355 371.516 14.4625 373.566 15.8236C374.309 16.4665 374.897 17.2834 375.282 18.2081C375.667 19.1327 375.839 20.1392 375.783 21.1462C375.914 22.8105 375.518 24.4738 374.656 25.8793C374.176 26.4627 373.569 26.9161 372.886 27.2008C372.202 27.4854 371.463 27.5929 370.731 27.514H358.012V25.0999H370.059C370.498 25.1562 370.943 25.0806 371.342 24.882C371.741 24.6834 372.077 24.37 372.312 23.9784C372.718 23.0971 372.905 22.1231 372.857 21.1462C372.902 20.4773 372.79 19.807 372.53 19.194C372.271 18.581 371.871 18.0437 371.367 17.6294C369.967 16.8117 368.369 16.4417 366.77 16.565C365.338 16.4954 363.91 16.7887 362.609 17.4203C362.087 17.7236 361.628 18.1316 361.257 18.6209C360.886 19.1101 360.61 19.671 360.447 20.2716C359.971 22.0456 359.756 23.8853 359.811 25.7271C359.731 27.7307 359.995 29.7331 360.592 31.6388C360.79 32.2724 361.108 32.8579 361.526 33.3608C361.944 33.8636 362.455 34.2736 363.027 34.5662C364.406 35.1686 365.895 35.4478 367.388 35.3837C368.66 35.3837 369.968 35.3835 371.331 35.2315C372.694 35.0794 373.893 34.9844 374.965 34.8324L375.274 36.8474C374.491 37.1437 373.681 37.3538 372.857 37.4746C371.894 37.6267 370.877 37.7406 369.841 37.8357C368.805 37.9307 367.879 37.9879 367.061 37.9879C365.024 38.0777 362.995 37.6675 361.137 36.7903C359.642 35.98 358.48 34.6289 357.867 32.9886C357.101 30.7464 356.75 28.3725 356.831 25.9933C356.743 23.584 357.088 21.179 357.848 18.903C358.408 17.2589 359.545 15.8994 361.028 15.1013C362.81 14.3005 364.743 13.9365 366.679 14.0369Z" fill="white"/>
</g>
<g filter="url(#filter16_d_1_1929)">
<path d="M383.817 14.5595L384.15 18.8126L384.399 19.5028V37H381.804V14.6155L383.817 14.5595ZM393.798 14L393.465 16.7794H392.467C391.151 16.7868 389.852 17.1112 388.658 17.7308C387.104 18.5327 385.593 19.4358 384.133 20.4355L383.933 18.4767C385.338 17.1849 386.874 16.083 388.508 15.1936C389.886 14.4318 391.397 14.0241 392.933 14H393.798Z" fill="white"/>
</g>
<g filter="url(#filter17_d_1_1929)">
<path d="M409.79 14.1504V16.6707H396.796V14.3848L400.718 14.1504H409.79ZM403.027 7.05867V31.7918C402.993 32.2636 403.04 32.7385 403.166 33.1884C403.291 33.6382 403.493 34.0536 403.758 34.4097C404.369 35.0124 405.157 35.3074 405.951 35.2303H409.275L409.607 37.5159C409.142 37.6514 408.67 37.7558 408.195 37.8285C407.646 37.8285 407.131 37.9654 406.649 37.985H405.453C404.781 38.0417 404.106 37.9376 403.469 37.679C402.833 37.4204 402.247 37.0128 401.748 36.4806C401.307 35.8865 400.969 35.1959 400.756 34.4483C400.542 33.7007 400.455 32.9109 400.502 32.124V7L403.027 7.05867Z" fill="white"/>
</g>
<g filter="url(#filter18_d_1_1929)">
<path d="M423.8 14.0142C425.811 13.9183 427.815 14.3217 429.649 15.1917C431.129 15.9876 432.262 17.3463 432.818 18.99C434.097 23.5721 434.097 28.4425 432.818 33.0246C432.262 34.6682 431.129 36.027 429.649 36.8229C425.9 38.3924 421.719 38.3924 417.97 36.8229C416.486 36.0277 415.347 34.6695 414.783 33.0246C413.456 28.4499 413.456 23.5646 414.783 18.99C415.347 17.345 416.486 15.9868 417.97 15.1917C419.797 14.3205 421.796 13.917 423.8 14.0142ZM423.8 16.597C422.367 16.5259 420.938 16.819 419.636 17.4515C419.106 17.7597 418.639 18.1752 418.263 18.674C417.887 19.1728 417.609 19.745 417.445 20.3573C416.564 24.0994 416.564 28.0102 417.445 31.7523C417.606 32.368 417.883 32.9438 418.26 33.446C418.636 33.9482 419.104 34.3667 419.636 34.677C420.938 35.3096 422.367 35.6027 423.8 35.5316C425.234 35.5968 426.661 35.3039 427.965 34.677C428.5 34.3702 428.97 33.9527 429.346 33.45C429.723 32.9473 429.998 32.3698 430.156 31.7523C431.037 28.0102 431.037 24.0994 430.156 20.3573C429.995 19.7437 429.718 19.1701 429.342 18.671C428.966 18.1718 428.497 17.7571 427.965 17.4515C426.661 16.8246 425.234 16.5318 423.8 16.597Z" fill="white"/>
</g>
<g filter="url(#filter19_d_1_1929)">
<path d="M459.594 14.0377C462.018 13.8338 464.44 14.4602 466.49 15.8215C467.235 16.4653 467.825 17.2807 468.215 18.203C468.604 19.1252 468.782 20.1292 468.734 21.1353C468.866 22.7969 468.469 24.4575 467.603 25.8607C467.121 26.4431 466.511 26.8958 465.825 27.18C465.139 27.4642 464.397 27.5714 463.662 27.4927H450.891V25.0826H462.969C463.41 25.1435 463.858 25.0703 464.259 24.8715C464.661 24.6728 464.999 24.3572 465.231 23.9629C465.655 23.089 465.845 22.112 465.778 21.1353C465.827 20.4672 465.716 19.7969 465.455 19.1843C465.194 18.5717 464.791 18.0357 464.282 17.6243C462.878 16.8059 461.272 16.4364 459.666 16.5617C458.234 16.4922 456.807 16.7852 455.507 17.4156C454.983 17.7184 454.521 18.1257 454.149 18.6142C453.776 19.1026 453.5 19.6626 453.336 20.2622C452.857 22.0333 452.642 23.87 452.697 25.7087C452.621 27.7074 452.881 29.7046 453.463 31.6107C453.665 32.2521 453.988 32.8449 454.415 33.3535C454.841 33.8621 455.361 34.2762 455.945 34.5713C457.336 35.1725 458.836 35.4511 460.342 35.3875C461.6 35.3875 462.932 35.3873 464.301 35.2355C465.669 35.0837 466.873 34.9889 467.95 34.837L468.278 36.8485C467.492 37.1443 466.679 37.3543 465.851 37.475C464.866 37.6268 463.863 37.7405 462.823 37.8354C461.783 37.9303 460.852 37.9874 460.031 37.9874C457.986 38.0791 455.949 37.6696 454.084 36.7918C452.583 35.9828 451.416 34.6339 450.8 32.9963C449.425 28.4178 449.425 23.5123 450.8 18.9339C451.361 17.2924 452.503 15.9352 453.992 15.1383C455.756 14.3372 457.671 13.961 459.594 14.0377Z" fill="white"/>
</g>
<g filter="url(#filter20_d_1_1929)">
<path d="M477.104 14.5723L477.321 18.823L477.592 19.5128V37H474.756V14.6283L477.104 14.5723ZM486.424 14.0132C487.19 13.9636 487.958 14.0751 488.682 14.3411C489.405 14.6071 490.068 15.0219 490.632 15.5605C491.163 16.1878 491.568 16.9181 491.822 17.7088C492.076 18.4995 492.175 19.3346 492.113 20.1652V36.944H489.368V20.8924C489.486 19.6819 489.142 18.4717 488.41 17.5181C488.023 17.1506 487.567 16.8696 487.069 16.6931C486.572 16.5166 486.045 16.4485 485.521 16.4926C484.69 16.4955 483.866 16.6404 483.082 16.9214C482.178 17.2451 481.317 17.6834 480.518 18.2263C479.614 18.8415 478.531 19.6059 477.266 20.5753L477.104 18.4316C478.511 17.0989 480.092 15.9756 481.8 15.0944C483.241 14.3733 484.823 14.0035 486.424 14.0132ZM500.981 14.0132C501.758 13.9594 502.537 14.0706 503.27 14.34C504.003 14.6093 504.675 15.0311 505.244 15.5791C506.303 16.8469 506.836 18.4949 506.725 20.1652V36.944H503.889V20.8924C503.962 19.701 503.63 18.5208 502.95 17.5552C502.571 17.1674 502.114 16.8712 501.611 16.6874C501.109 16.5037 500.573 16.4372 500.042 16.4926C499.192 16.4893 498.348 16.6407 497.55 16.94C496.662 17.2906 495.814 17.7407 495.021 18.2823C494.136 18.8789 493.07 19.6432 491.842 20.5753L491.661 18.4316C493.078 17.0934 494.671 15.9697 496.394 15.0944C497.846 14.369 499.44 13.9991 501.053 14.0132H500.981Z" fill="white"/>
</g>
<g filter="url(#filter21_d_1_1929)">
<path d="M531.489 5.00133C532.952 5.00133 534.44 5.0756 535.952 5.22415C537.439 5.35413 538.945 5.55853 540.451 5.83706L540.215 8.04664L535.988 7.80524C534.482 7.80524 533.031 7.80524 531.616 7.80524C530.556 7.80047 529.496 7.8502 528.441 7.95393C527.678 8.00777 526.936 8.2294 526.264 8.6038C525.669 8.9807 525.23 9.56907 525.031 10.2564C524.74 11.3064 524.611 12.3966 524.65 13.4874C524.518 14.9466 524.863 16.4093 525.629 17.6468C526.51 18.5779 527.675 19.1739 528.931 19.3366L535.444 20.7107C537.374 20.9595 539.133 21.9726 540.342 23.533C541.35 25.3158 541.823 27.3631 541.703 29.4194C541.756 30.9427 541.547 32.4638 541.086 33.9131C540.745 34.934 540.113 35.8267 539.272 36.4756C538.324 37.1038 537.252 37.5096 536.133 37.664C534.658 37.9044 533.165 38.016 531.67 37.9981C530.6 37.9981 529.258 37.9982 527.679 37.8497C525.856 37.7324 524.04 37.5215 522.237 37.2182L522.473 35.0086L526.319 35.1571C527.353 35.1571 528.296 35.1571 529.131 35.1571H531.779C533.176 35.1777 534.571 35.0281 535.934 34.7114C536.392 34.6083 536.824 34.4058 537.199 34.1176C537.575 33.8293 537.885 33.4618 538.111 33.0402C538.608 31.8712 538.831 30.5995 538.764 29.3264C538.805 28.2255 538.658 27.1256 538.328 26.0769C538.094 25.3123 537.607 24.6555 536.95 24.22C536.176 23.7681 535.327 23.466 534.446 23.3287L527.825 21.8989C526.9 21.7762 526.009 21.467 525.202 20.9888C524.396 20.5107 523.69 19.8732 523.126 19.1136C522.116 17.365 521.636 15.3485 521.747 13.3201C521.694 11.7968 521.903 10.2759 522.364 8.82661C522.692 7.8142 523.327 6.9358 524.178 6.31987C525.091 5.72144 526.129 5.35226 527.208 5.24273C528.628 5.06909 530.058 4.98846 531.489 5.00133Z" fill="white"/>
</g>
<g filter="url(#filter22_d_1_1929)">
<path d="M564.111 23.6014V25.8855L553.121 25.9815C552.648 25.9477 552.174 26.0175 551.729 26.1863C551.284 26.3551 550.879 26.6189 550.542 26.9605C549.965 27.6893 549.678 28.6148 549.738 29.5517V31.4712C549.697 31.9969 549.763 32.5255 549.93 33.0242C550.097 33.5228 550.363 33.9809 550.71 34.3696C551.543 35.0701 552.608 35.4139 553.682 35.3293C554.793 35.3487 555.899 35.1734 556.953 34.811C558.197 34.4029 559.39 33.8422 560.504 33.1411C561.648 32.4337 562.692 31.5683 563.607 30.5691V32.8915C563.135 33.4811 562.595 34.0095 561.999 34.4654C561.24 35.0879 560.434 35.6463 559.588 36.1353C558.633 36.6898 557.625 37.1403 556.579 37.4791C555.476 37.8241 554.33 37.9988 553.177 37.9974C552.005 38.0283 550.842 37.7854 549.775 37.2872C548.838 36.8219 548.057 36.0799 547.532 35.1564C546.97 34.1197 546.692 32.9455 546.729 31.7591V29.091C546.681 28.3289 546.795 27.5652 547.063 26.8527C547.331 26.1402 547.746 25.4958 548.28 24.9642C549.509 23.9344 551.071 23.4201 552.654 23.5246L564.111 23.6014ZM558.504 14.0041C559.844 13.9655 561.178 14.2003 562.429 14.6951C563.462 15.1322 564.319 15.9173 564.859 16.9215C565.474 18.2159 565.763 19.648 565.7 21.0868V37.671H563.382L562.915 32.6228L562.728 32.2006V21.0868C562.813 19.8886 562.453 18.7017 561.719 17.7662C561.204 17.3242 560.607 16.9943 559.965 16.7964C559.322 16.5984 558.647 16.5365 557.981 16.6145C556.616 16.6145 555.046 16.6145 553.252 16.8064C551.458 16.9984 549.719 17.0944 548.018 17.2863L547.738 15.0404C548.785 14.8485 549.906 14.6949 551.065 14.5414L554.803 14.1576C555.906 14.0808 557.177 14.0233 558.448 14.0233L558.504 14.0041Z" fill="white"/>
</g>
<g filter="url(#filter23_d_1_1929)">
<path d="M574.671 13.9806V30.7651C574.542 32.0101 574.889 33.2579 575.64 34.2465C576.085 34.6301 576.599 34.9203 577.154 35.1005C577.708 35.2807 578.292 35.3472 578.872 35.2966C580.327 35.2884 581.76 34.9287 583.054 34.2465C584.751 33.3259 586.395 32.3063 587.977 31.1929L588.319 33.4295C586.705 34.7929 584.93 35.943 583.035 36.8526C581.414 37.5952 579.66 37.9859 577.883 38C573.765 38 571.705 35.8608 571.705 31.582V14.078L574.671 13.9806ZM586.076 2L587.863 4.37295L579.48 10.4992L578.339 9.04051L586.076 2ZM590.695 13.9806V37.3193H588.338L588.053 32.9239L587.73 32.2043V13.9222L590.695 13.9806Z" fill="white"/>
</g>
<g filter="url(#filter24_d_1_1929)">
<path d="M604.768 14.3787C606.231 14.3833 607.686 14.585 609.098 14.9789C610.577 15.3983 612.005 15.9897 613.354 16.742L613.209 18.6177C611.644 18.0737 610.262 17.6612 609.079 17.3611C607.891 17.0482 606.668 16.8907 605.441 16.8922C604.275 16.8356 603.116 17.1147 602.094 17.6986C601.166 18.3667 600.516 19.3715 600.275 20.5122C599.475 24.1677 599.475 27.9613 600.275 31.6167C600.537 32.7686 601.18 33.7902 602.094 34.5055C603.065 35.1219 604.193 35.4225 605.332 35.3682C606.196 35.3789 607.056 35.2459 607.879 34.9744C608.745 34.6559 609.57 34.2273 610.335 33.6988C611.208 33.0986 612.154 32.3672 613.354 31.5043L613.591 33.7363C612.286 34.9329 610.845 35.9597 609.298 36.7938C607.817 37.5737 606.177 37.9787 604.514 37.9755C603.359 38.077 602.198 37.8616 601.15 37.3509C600.103 36.8403 599.204 36.0525 598.547 35.0681C597.159 32.3064 596.53 29.206 596.728 26.1022C596.653 23.7491 596.948 21.3989 597.601 19.143C598.036 17.6066 598.983 16.278 600.275 15.3915C601.655 14.6379 603.209 14.2878 604.768 14.3787ZM615.682 5V37.5817H613.463L613.099 33.6237L612.827 33.3425V17.7549L613.063 17.0609C612.939 16.2605 612.872 15.4517 612.863 14.6411C612.863 13.8908 612.863 13.0844 612.863 12.2216V5H615.682Z" fill="white"/>
</g>
<g filter="url(#filter25_d_1_1929)">
<path d="M631.541 14.0378C633.956 13.8336 636.368 14.4609 638.41 15.8244C639.158 16.4633 639.751 17.2789 640.14 18.2042C640.528 19.1294 640.701 20.1379 640.645 21.1468C640.776 22.8111 640.38 24.4743 639.518 25.8798C639.039 26.4632 638.431 26.9165 637.748 27.2012C637.064 27.4858 636.325 27.5933 635.593 27.5144H622.874V25.1004H634.921C635.36 25.1567 635.805 25.0811 636.204 24.8825C636.603 24.6839 636.939 24.3705 637.174 23.979C637.579 23.0978 637.761 22.1225 637.701 21.1468C637.749 20.4776 637.639 19.8062 637.379 19.1926C637.119 18.579 636.718 18.0422 636.211 17.6301C634.813 16.8083 633.213 16.438 631.614 16.5658C630.187 16.4962 628.766 16.7896 627.471 17.421C626.949 17.7244 626.49 18.1323 626.119 18.6216C625.748 19.1108 625.473 19.6717 625.309 20.2723C624.833 22.0462 624.618 23.8859 624.673 25.7276C624.597 27.7295 624.856 29.7298 625.436 31.639C625.847 32.9126 626.722 33.9648 627.871 34.5663C629.257 35.1668 630.751 35.4457 632.25 35.3838C633.522 35.3838 634.83 35.3836 636.193 35.2316C637.556 35.0795 638.755 34.9846 639.827 34.8325L640.136 36.8475C639.353 37.1437 638.543 37.3538 637.719 37.4746C636.738 37.6267 635.739 37.7406 634.703 37.8357C633.667 37.9307 632.741 37.9879 631.923 37.9879C629.886 38.0776 627.858 37.6675 625.999 36.7904C624.505 35.9801 623.342 34.629 622.729 32.9888C621.964 30.7466 621.612 28.3729 621.693 25.9937C621.605 23.5846 621.95 21.1796 622.711 18.9037C623.27 17.2597 624.407 15.9002 625.89 15.1021C627.672 14.3014 629.605 13.9374 631.541 14.0378Z" fill="white"/>
</g>
</g>
<defs>
<filter id="filter0_d_1_1929" x="2" y="2" width="642.669" height="44" filterUnits="userSpaceOnUse" color-interpolation-filters="sRGB">
<feFlood flood-opacity="0" result="BackgroundImageFix"/>
<feColorMatrix in="SourceAlpha" type="matrix" values="0 0 0 0 0 0 0 0 0 0 0 0 0 0 0 0 0 0 127 0" result="hardAlpha"/>
<feOffset dy="4"/>
<feGaussianBlur stdDeviation="2"/>
<feComposite in2="hardAlpha" operator="out"/>
<feColorMatrix type="matrix" values="0 0 0 0 0 0 0 0 0 0 0 0 0 0 0 0 0 0 0.25 0"/>
<feBlend mode="normal" in2="BackgroundImageFix" result="effect1_dropShadow_1_1929"/>
<feBlend mode="normal" in="SourceGraphic" in2="effect1_dropShadow_1_1929" result="shape"/>
</filter>
<filter id="filter1_d_1_1929" x="0" y="3" width="32.9893" height="45" filterUnits="userSpaceOnUse" color-interpolation-filters="sRGB">
<feFlood flood-opacity="0" result="BackgroundImageFix"/>
<feColorMatrix in="SourceAlpha" type="matrix" values="0 0 0 0 0 0 0 0 0 0 0 0 0 0 0 0 0 0 127 0" result="hardAlpha"/>
<feOffset dy="4"/>
<feGaussianBlur stdDeviation="3"/>
<feComposite in2="hardAlpha" operator="out"/>
<feColorMatrix type="matrix" values="0 0 0 0 0 0 0 0 0 0 0 0 0 0 0 0 0 0 0.4 0"/>
<feBlend mode="normal" in2="BackgroundImageFix" result="effect1_dropShadow_1_1929"/>
<feBlend mode="normal" in="SourceGraphic" in2="effect1_dropShadow_1_1929" result="shape"/>
</filter>
<filter id="filter2_d_1_1929" x="24.9868" y="12" width="31.9897" height="36" filterUnits="userSpaceOnUse" color-interpolation-filters="sRGB">
<feFlood flood-opacity="0" result="BackgroundImageFix"/>
<feColorMatrix in="SourceAlpha" type="matrix" values="0 0 0 0 0 0 0 0 0 0 0 0 0 0 0 0 0 0 127 0" result="hardAlpha"/>
<feOffset dy="4"/>
<feGaussianBlur stdDeviation="3"/>
<feComposite in2="hardAlpha" operator="out"/>
<feColorMatrix type="matrix" values="0 0 0 0 0 0 0 0 0 0 0 0 0 0 0 0 0 0 0.4 0"/>
<feBlend mode="normal" in2="BackgroundImageFix" result="effect1_dropShadow_1_1929"/>
<feBlend mode="normal" in="SourceGraphic" in2="effect1_dropShadow_1_1929" result="shape"/>
</filter>
<filter id="filter3_d_1_1929" x="51.9731" y="12" width="29.9907" height="35" filterUnits="userSpaceOnUse" color-interpolation-filters="sRGB">
<feFlood flood-opacity="0" result="BackgroundImageFix"/>
<feColorMatrix in="SourceAlpha" type="matrix" values="0 0 0 0 0 0 0 0 0 0 0 0 0 0 0 0 0 0 127 0" result="hardAlpha"/>
<feOffset dy="4"/>
<feGaussianBlur stdDeviation="3"/>
<feComposite in2="hardAlpha" operator="out"/>
<feColorMatrix type="matrix" values="0 0 0 0 0 0 0 0 0 0 0 0 0 0 0 0 0 0 0.4 0"/>
<feBlend mode="normal" in2="BackgroundImageFix" result="effect1_dropShadow_1_1929"/>
<feBlend mode="normal" in="SourceGraphic" in2="effect1_dropShadow_1_1929" result="shape"/>
</filter>
<filter id="filter4_d_1_1929" x="76.96" y="3" width="30.9902" height="44" filterUnits="userSpaceOnUse" color-interpolation-filters="sRGB">
<feFlood flood-opacity="0" result="BackgroundImageFix"/>
<feColorMatrix in="SourceAlpha" type="matrix" values="0 0 0 0 0 0 0 0 0 0 0 0 0 0 0 0 0 0 127 0" result="hardAlpha"/>
<feOffset dy="4"/>
<feGaussianBlur stdDeviation="3"/>
<feComposite in2="hardAlpha" operator="out"/>
<feColorMatrix type="matrix" values="0 0 0 0 0 0 0 0 0 0 0 0 0 0 0 0 0 0 0.4 0"/>
<feBlend mode="normal" in2="BackgroundImageFix" result="effect1_dropShadow_1_1929"/>
<feBlend mode="normal" in="SourceGraphic" in2="effect1_dropShadow_1_1929" result="shape"/>
</filter>
<filter id="filter5_d_1_1929" x="101.947" y="12" width="30.9902" height="36" filterUnits="userSpaceOnUse" color-interpolation-filters="sRGB">
<feFlood flood-opacity="0" result="BackgroundImageFix"/>
<feColorMatrix in="SourceAlpha" type="matrix" values="0 0 0 0 0 0 0 0 0 0 0 0 0 0 0 0 0 0 127 0" result="hardAlpha"/>
<feOffset dy="4"/>
<feGaussianBlur stdDeviation="3"/>
<feComposite in2="hardAlpha" operator="out"/>
<feColorMatrix type="matrix" values="0 0 0 0 0 0 0 0 0 0 0 0 0 0 0 0 0 0 0.4 0"/>
<feBlend mode="normal" in2="BackgroundImageFix" result="effect1_dropShadow_1_1929"/>
<feBlend mode="normal" in="SourceGraphic" in2="effect1_dropShadow_1_1929" result="shape"/>
</filter>
<filter id="filter6_d_1_1929" x="125.935" y="12" width="28.9912" height="36" filterUnits="userSpaceOnUse" color-interpolation-filters="sRGB">
<feFlood flood-opacity="0" result="BackgroundImageFix"/>
<feColorMatrix in="SourceAlpha" type="matrix" values="0 0 0 0 0 0 0 0 0 0 0 0 0 0 0 0 0 0 127 0" result="hardAlpha"/>
<feOffset dy="4"/>
<feGaussianBlur stdDeviation="3"/>
<feComposite in2="hardAlpha" operator="out"/>
<feColorMatrix type="matrix" values="0 0 0 0 0 0 0 0 0 0 0 0 0 0 0 0 0 0 0.4 0"/>
<feBlend mode="normal" in2="BackgroundImageFix" result="effect1_dropShadow_1_1929"/>
<feBlend mode="normal" in="SourceGraphic" in2="effect1_dropShadow_1_1929" result="shape"/>
</filter>
<filter id="filter7_d_1_1929" x="148.922" y="3" width="14.9985" height="44" filterUnits="userSpaceOnUse" color-interpolation-filters="sRGB">
<feFlood flood-opacity="0" result="BackgroundImageFix"/>
<feColorMatrix in="SourceAlpha" type="matrix" values="0 0 0 0 0 0 0 0 0 0 0 0 0 0 0 0 0 0 127 0" result="hardAlpha"/>
<feOffset dy="4"/>
<feGaussianBlur stdDeviation="3"/>
<feComposite in2="hardAlpha" operator="out"/>
<feColorMatrix type="matrix" values="0 0 0 0 0 0 0 0 0 0 0 0 0 0 0 0 0 0 0.4 0"/>
<feBlend mode="normal" in2="BackgroundImageFix" result="effect1_dropShadow_1_1929"/>
<feBlend mode="normal" in="SourceGraphic" in2="effect1_dropShadow_1_1929" result="shape"/>
</filter>
<filter id="filter8_d_1_1929" x="158.917" y="12" width="43.9834" height="35" filterUnits="userSpaceOnUse" color-interpolation-filters="sRGB">
<feFlood flood-opacity="0" result="BackgroundImageFix"/>
<feColorMatrix in="SourceAlpha" type="matrix" values="0 0 0 0 0 0 0 0 0 0 0 0 0 0 0 0 0 0 127 0" result="hardAlpha"/>
<feOffset dy="4"/>
<feGaussianBlur stdDeviation="3"/>
<feComposite in2="hardAlpha" operator="out"/>
<feColorMatrix type="matrix" values="0 0 0 0 0 0 0 0 0 0 0 0 0 0 0 0 0 0 0.4 0"/>
<feBlend mode="normal" in2="BackgroundImageFix" result="effect1_dropShadow_1_1929"/>
<feBlend mode="normal" in="SourceGraphic" in2="effect1_dropShadow_1_1929" result="shape"/>
</filter>
<filter id="filter9_d_1_1929" x="196.897" y="12" width="30.99" height="36" filterUnits="userSpaceOnUse" color-interpolation-filters="sRGB">
<feFlood flood-opacity="0" result="BackgroundImageFix"/>
<feColorMatrix in="SourceAlpha" type="matrix" values="0 0 0 0 0 0 0 0 0 0 0 0 0 0 0 0 0 0 127 0" result="hardAlpha"/>
<feOffset dy="4"/>
<feGaussianBlur stdDeviation="3"/>
<feComposite in2="hardAlpha" operator="out"/>
<feColorMatrix type="matrix" values="0 0 0 0 0 0 0 0 0 0 0 0 0 0 0 0 0 0 0.4 0"/>
<feBlend mode="normal" in2="BackgroundImageFix" result="effect1_dropShadow_1_1929"/>
<feBlend mode="normal" in="SourceGraphic" in2="effect1_dropShadow_1_1929" result="shape"/>
</filter>
<filter id="filter10_d_1_1929" x="221.885" y="12" width="30.99" height="35" filterUnits="userSpaceOnUse" color-interpolation-filters="sRGB">
<feFlood flood-opacity="0" result="BackgroundImageFix"/>
<feColorMatrix in="SourceAlpha" type="matrix" values="0 0 0 0 0 0 0 0 0 0 0 0 0 0 0 0 0 0 127 0" result="hardAlpha"/>
<feOffset dy="4"/>
<feGaussianBlur stdDeviation="3"/>
<feComposite in2="hardAlpha" operator="out"/>
<feColorMatrix type="matrix" values="0 0 0 0 0 0 0 0 0 0 0 0 0 0 0 0 0 0 0.4 0"/>
<feBlend mode="normal" in2="BackgroundImageFix" result="effect1_dropShadow_1_1929"/>
<feBlend mode="normal" in="SourceGraphic" in2="effect1_dropShadow_1_1929" result="shape"/>
</filter>
<filter id="filter11_d_1_1929" x="245.872" y="5" width="24.9932" height="43" filterUnits="userSpaceOnUse" color-interpolation-filters="sRGB">
<feFlood flood-opacity="0" result="BackgroundImageFix"/>
<feColorMatrix in="SourceAlpha" type="matrix" values="0 0 0 0 0 0 0 0 0 0 0 0 0 0 0 0 0 0 127 0" result="hardAlpha"/>
<feOffset dy="4"/>
<feGaussianBlur stdDeviation="3"/>
<feComposite in2="hardAlpha" operator="out"/>
<feColorMatrix type="matrix" values="0 0 0 0 0 0 0 0 0 0 0 0 0 0 0 0 0 0 0.4 0"/>
<feBlend mode="normal" in2="BackgroundImageFix" result="effect1_dropShadow_1_1929"/>
<feBlend mode="normal" in="SourceGraphic" in2="effect1_dropShadow_1_1929" result="shape"/>
</filter>
<filter id="filter12_d_1_1929" x="263.863" y="12" width="31.9895" height="36" filterUnits="userSpaceOnUse" color-interpolation-filters="sRGB">
<feFlood flood-opacity="0" result="BackgroundImageFix"/>
<feColorMatrix in="SourceAlpha" type="matrix" values="0 0 0 0 0 0 0 0 0 0 0 0 0 0 0 0 0 0 127 0" result="hardAlpha"/>
<feOffset dy="4"/>
<feGaussianBlur stdDeviation="3"/>
<feComposite in2="hardAlpha" operator="out"/>
<feColorMatrix type="matrix" values="0 0 0 0 0 0 0 0 0 0 0 0 0 0 0 0 0 0 0.4 0"/>
<feBlend mode="normal" in2="BackgroundImageFix" result="effect1_dropShadow_1_1929"/>
<feBlend mode="normal" in="SourceGraphic" in2="effect1_dropShadow_1_1929" result="shape"/>
</filter>
<filter id="filter13_d_1_1929" x="294.846" y="3" width="38.9858" height="44" filterUnits="userSpaceOnUse" color-interpolation-filters="sRGB">
<feFlood flood-opacity="0" result="BackgroundImageFix"/>
<feColorMatrix in="SourceAlpha" type="matrix" values="0 0 0 0 0 0 0 0 0 0 0 0 0 0 0 0 0 0 127 0" result="hardAlpha"/>
<feOffset dy="4"/>
<feGaussianBlur stdDeviation="3"/>
<feComposite in2="hardAlpha" operator="out"/>
<feColorMatrix type="matrix" values="0 0 0 0 0 0 0 0 0 0 0 0 0 0 0 0 0 0 0.4 0"/>
<feBlend mode="normal" in2="BackgroundImageFix" result="effect1_dropShadow_1_1929"/>
<feBlend mode="normal" in="SourceGraphic" in2="effect1_dropShadow_1_1929" result="shape"/>
</filter>
<filter id="filter14_d_1_1929" x="325.83" y="3" width="31.9895" height="45" filterUnits="userSpaceOnUse" color-interpolation-filters="sRGB">
<feFlood flood-opacity="0" result="BackgroundImageFix"/>
<feColorMatrix in="SourceAlpha" type="matrix" values="0 0 0 0 0 0 0 0 0 0 0 0 0 0 0 0 0 0 127 0" result="hardAlpha"/>
<feOffset dy="4"/>
<feGaussianBlur stdDeviation="3"/>
<feComposite in2="hardAlpha" operator="out"/>
<feColorMatrix type="matrix" values="0 0 0 0 0 0 0 0 0 0 0 0 0 0 0 0 0 0 0.4 0"/>
<feBlend mode="normal" in2="BackgroundImageFix" result="effect1_dropShadow_1_1929"/>
<feBlend mode="normal" in="SourceGraphic" in2="effect1_dropShadow_1_1929" result="shape"/>
</filter>
<filter id="filter15_d_1_1929" x="350.817" y="12" width="30.99" height="36" filterUnits="userSpaceOnUse" color-interpolation-filters="sRGB">
<feFlood flood-opacity="0" result="BackgroundImageFix"/>
<feColorMatrix in="SourceAlpha" type="matrix" values="0 0 0 0 0 0 0 0 0 0 0 0 0 0 0 0 0 0 127 0" result="hardAlpha"/>
<feOffset dy="4"/>
<feGaussianBlur stdDeviation="3"/>
<feComposite in2="hardAlpha" operator="out"/>
<feColorMatrix type="matrix" values="0 0 0 0 0 0 0 0 0 0 0 0 0 0 0 0 0 0 0.4 0"/>
<feBlend mode="normal" in2="BackgroundImageFix" result="effect1_dropShadow_1_1929"/>
<feBlend mode="normal" in="SourceGraphic" in2="effect1_dropShadow_1_1929" result="shape"/>
</filter>
<filter id="filter16_d_1_1929" x="375.804" y="12" width="23.9937" height="35" filterUnits="userSpaceOnUse" color-interpolation-filters="sRGB">
<feFlood flood-opacity="0" result="BackgroundImageFix"/>
<feColorMatrix in="SourceAlpha" type="matrix" values="0 0 0 0 0 0 0 0 0 0 0 0 0 0 0 0 0 0 127 0" result="hardAlpha"/>
<feOffset dy="4"/>
<feGaussianBlur stdDeviation="3"/>
<feComposite in2="hardAlpha" operator="out"/>
<feColorMatrix type="matrix" values="0 0 0 0 0 0 0 0 0 0 0 0 0 0 0 0 0 0 0.4 0"/>
<feBlend mode="normal" in2="BackgroundImageFix" result="effect1_dropShadow_1_1929"/>
<feBlend mode="normal" in="SourceGraphic" in2="effect1_dropShadow_1_1929" result="shape"/>
</filter>
<filter id="filter17_d_1_1929" x="390.796" y="5" width="24.9932" height="43" filterUnits="userSpaceOnUse" color-interpolation-filters="sRGB">
<feFlood flood-opacity="0" result="BackgroundImageFix"/>
<feColorMatrix in="SourceAlpha" type="matrix" values="0 0 0 0 0 0 0 0 0 0 0 0 0 0 0 0 0 0 127 0" result="hardAlpha"/>
<feOffset dy="4"/>
<feGaussianBlur stdDeviation="3"/>
<feComposite in2="hardAlpha" operator="out"/>
<feColorMatrix type="matrix" values="0 0 0 0 0 0 0 0 0 0 0 0 0 0 0 0 0 0 0.4 0"/>
<feBlend mode="normal" in2="BackgroundImageFix" result="effect1_dropShadow_1_1929"/>
<feBlend mode="normal" in="SourceGraphic" in2="effect1_dropShadow_1_1929" result="shape"/>
</filter>
<filter id="filter18_d_1_1929" x="407.788" y="12" width="31.9895" height="36" filterUnits="userSpaceOnUse" color-interpolation-filters="sRGB">
<feFlood flood-opacity="0" result="BackgroundImageFix"/>
<feColorMatrix in="SourceAlpha" type="matrix" values="0 0 0 0 0 0 0 0 0 0 0 0 0 0 0 0 0 0 127 0" result="hardAlpha"/>
<feOffset dy="4"/>
<feGaussianBlur stdDeviation="3"/>
<feComposite in2="hardAlpha" operator="out"/>
<feColorMatrix type="matrix" values="0 0 0 0 0 0 0 0 0 0 0 0 0 0 0 0 0 0 0.4 0"/>
<feBlend mode="normal" in2="BackgroundImageFix" result="effect1_dropShadow_1_1929"/>
<feBlend mode="normal" in="SourceGraphic" in2="effect1_dropShadow_1_1929" result="shape"/>
</filter>
<filter id="filter19_d_1_1929" x="443.769" y="12" width="30.99" height="36" filterUnits="userSpaceOnUse" color-interpolation-filters="sRGB">
<feFlood flood-opacity="0" result="BackgroundImageFix"/>
<feColorMatrix in="SourceAlpha" type="matrix" values="0 0 0 0 0 0 0 0 0 0 0 0 0 0 0 0 0 0 127 0" result="hardAlpha"/>
<feOffset dy="4"/>
<feGaussianBlur stdDeviation="3"/>
<feComposite in2="hardAlpha" operator="out"/>
<feColorMatrix type="matrix" values="0 0 0 0 0 0 0 0 0 0 0 0 0 0 0 0 0 0 0.4 0"/>
<feBlend mode="normal" in2="BackgroundImageFix" result="effect1_dropShadow_1_1929"/>
<feBlend mode="normal" in="SourceGraphic" in2="effect1_dropShadow_1_1929" result="shape"/>
</filter>
<filter id="filter20_d_1_1929" x="468.756" y="12" width="43.9834" height="35" filterUnits="userSpaceOnUse" color-interpolation-filters="sRGB">
<feFlood flood-opacity="0" result="BackgroundImageFix"/>
<feColorMatrix in="SourceAlpha" type="matrix" values="0 0 0 0 0 0 0 0 0 0 0 0 0 0 0 0 0 0 127 0" result="hardAlpha"/>
<feOffset dy="4"/>
<feGaussianBlur stdDeviation="3"/>
<feComposite in2="hardAlpha" operator="out"/>
<feColorMatrix type="matrix" values="0 0 0 0 0 0 0 0 0 0 0 0 0 0 0 0 0 0 0.4 0"/>
<feBlend mode="normal" in2="BackgroundImageFix" result="effect1_dropShadow_1_1929"/>
<feBlend mode="normal" in="SourceGraphic" in2="effect1_dropShadow_1_1929" result="shape"/>
</filter>
<filter id="filter21_d_1_1929" x="515.731" y="3" width="31.9895" height="45" filterUnits="userSpaceOnUse" color-interpolation-filters="sRGB">
<feFlood flood-opacity="0" result="BackgroundImageFix"/>
<feColorMatrix in="SourceAlpha" type="matrix" values="0 0 0 0 0 0 0 0 0 0 0 0 0 0 0 0 0 0 127 0" result="hardAlpha"/>
<feOffset dy="4"/>
<feGaussianBlur stdDeviation="3"/>
<feComposite in2="hardAlpha" operator="out"/>
<feColorMatrix type="matrix" values="0 0 0 0 0 0 0 0 0 0 0 0 0 0 0 0 0 0 0.4 0"/>
<feBlend mode="normal" in2="BackgroundImageFix" result="effect1_dropShadow_1_1929"/>
<feBlend mode="normal" in="SourceGraphic" in2="effect1_dropShadow_1_1929" result="shape"/>
</filter>
<filter id="filter22_d_1_1929" x="540.718" y="12" width="30.99" height="36" filterUnits="userSpaceOnUse" color-interpolation-filters="sRGB">
<feFlood flood-opacity="0" result="BackgroundImageFix"/>
<feColorMatrix in="SourceAlpha" type="matrix" values="0 0 0 0 0 0 0 0 0 0 0 0 0 0 0 0 0 0 127 0" result="hardAlpha"/>
<feOffset dy="4"/>
<feGaussianBlur stdDeviation="3"/>
<feComposite in2="hardAlpha" operator="out"/>
<feColorMatrix type="matrix" values="0 0 0 0 0 0 0 0 0 0 0 0 0 0 0 0 0 0 0.4 0"/>
<feBlend mode="normal" in2="BackgroundImageFix" result="effect1_dropShadow_1_1929"/>
<feBlend mode="normal" in="SourceGraphic" in2="effect1_dropShadow_1_1929" result="shape"/>
</filter>
<filter id="filter23_d_1_1929" x="565.705" y="0" width="30.99" height="48" filterUnits="userSpaceOnUse" color-interpolation-filters="sRGB">
<feFlood flood-opacity="0" result="BackgroundImageFix"/>
<feColorMatrix in="SourceAlpha" type="matrix" values="0 0 0 0 0 0 0 0 0 0 0 0 0 0 0 0 0 0 127 0" result="hardAlpha"/>
<feOffset dy="4"/>
<feGaussianBlur stdDeviation="3"/>
<feComposite in2="hardAlpha" operator="out"/>
<feColorMatrix type="matrix" values="0 0 0 0 0 0 0 0 0 0 0 0 0 0 0 0 0 0 0.4 0"/>
<feBlend mode="normal" in2="BackgroundImageFix" result="effect1_dropShadow_1_1929"/>
<feBlend mode="normal" in="SourceGraphic" in2="effect1_dropShadow_1_1929" result="shape"/>
</filter>
<filter id="filter24_d_1_1929" x="590.692" y="3" width="30.99" height="45" filterUnits="userSpaceOnUse" color-interpolation-filters="sRGB">
<feFlood flood-opacity="0" result="BackgroundImageFix"/>
<feColorMatrix in="SourceAlpha" type="matrix" values="0 0 0 0 0 0 0 0 0 0 0 0 0 0 0 0 0 0 127 0" result="hardAlpha"/>
<feOffset dy="4"/>
<feGaussianBlur stdDeviation="3"/>
<feComposite in2="hardAlpha" operator="out"/>
<feColorMatrix type="matrix" values="0 0 0 0 0 0 0 0 0 0 0 0 0 0 0 0 0 0 0.4 0"/>
<feBlend mode="normal" in2="BackgroundImageFix" result="effect1_dropShadow_1_1929"/>
<feBlend mode="normal" in="SourceGraphic" in2="effect1_dropShadow_1_1929" result="shape"/>
</filter>
<filter id="filter25_d_1_1929" x="615.679" y="12" width="30.99" height="36" filterUnits="userSpaceOnUse" color-interpolation-filters="sRGB">
<feFlood flood-opacity="0" result="BackgroundImageFix"/>
<feColorMatrix in="SourceAlpha" type="matrix" values="0 0 0 0 0 0 0 0 0 0 0 0 0 0 0 0 0 0 127 0" result="hardAlpha"/>
<feOffset dy="4"/>
<feGaussianBlur stdDeviation="3"/>
<feComposite in2="hardAlpha" operator="out"/>
<feColorMatrix type="matrix" values="0 0 0 0 0 0 0 0 0 0 0 0 0 0 0 0 0 0 0.4 0"/>
<feBlend mode="normal" in2="BackgroundImageFix" result="effect1_dropShadow_1_1929"/>
<feBlend mode="normal" in="SourceGraphic" in2="effect1_dropShadow_1_1929" result="shape"/>
</filter>
</defs>
</svg>
