<svg width="27" height="22" viewBox="0 0 27 22" fill="none" xmlns="http://www.w3.org/2000/svg">
<path d="M26.0459 2.86452C25.079 3.28865 24.0488 3.56977 22.9746 3.70627C24.0796 3.04652 24.923 2.00977 25.3195 0.760147C24.2893 1.3744 23.1518 1.80827 21.9395 2.0504C20.9613 1.00877 19.567 0.363647 18.046 0.363647C15.095 0.363647 12.7193 2.7589 12.7193 5.69527C12.7193 6.11777 12.755 6.52402 12.8428 6.91077C8.4114 6.69465 4.49027 4.57077 1.85615 1.3354C1.39627 2.13327 1.12652 3.04652 1.12652 4.02965C1.12652 5.87565 2.07715 7.51202 3.49415 8.4594C2.63777 8.44315 1.79765 8.19452 1.0859 7.8029C1.0859 7.81915 1.0859 7.84027 1.0859 7.8614C1.0859 10.4516 2.93352 12.6031 5.3564 13.0988C4.92252 13.2174 4.44965 13.2743 3.9589 13.2743C3.61765 13.2743 3.27315 13.2548 2.94977 13.1833C3.6404 15.2941 5.60015 16.846 7.9304 16.8964C6.1169 18.315 3.81427 19.1698 1.32152 19.1698C0.884398 19.1698 0.465148 19.1503 0.0458984 19.0966C2.40702 20.6193 5.20527 21.4886 8.2229 21.4886C18.0314 21.4886 23.3939 13.3636 23.3939 6.3209C23.3939 6.08527 23.3858 5.85777 23.3744 5.6319C24.4323 4.88115 25.3211 3.94352 26.0459 2.86452Z" fill="white"/>
</svg>
